{"glyphs":{"0":{"ha":875,"x_min":0,"x_max":0,"o":"m 438 1025 b 806 510 700 1025 806 772 b 438 -4 806 247 700 -4 b 69 510 175 -4 69 247 b 438 1025 69 772 175 1025 m 438 135 b 667 510 635 135 667 354 b 438 886 667 665 635 886 b 208 510 240 886 208 665 b 438 135 208 354 240 135 "},"1":{"ha":875,"x_min":0,"x_max":0,"o":"m 508 139 l 806 139 l 806 0 l 69 0 l 69 139 l 369 139 l 369 789 l 175 601 l 83 693 l 413 1021 l 508 1021 "},"2":{"ha":875,"x_min":0,"x_max":0,"o":"m 806 139 l 806 0 l 69 0 l 69 139 b 643 693 282 275 643 453 b 435 886 643 754 600 886 b 229 710 317 886 229 808 l 90 710 b 435 1025 90 879 242 1025 b 782 693 671 1025 782 850 b 329 139 782 435 519 265 "},"3":{"ha":875,"x_min":0,"x_max":0,"o":"m 208 304 b 439 135 224 193 332 135 b 667 335 554 135 667 204 b 446 532 667 465 547 532 l 354 532 l 354 661 l 588 882 l 93 882 l 93 1021 l 771 1021 l 771 882 l 536 661 b 806 335 692 625 806 501 b 439 -4 806 142 658 -4 b 69 304 231 -4 83 126 "},"4":{"ha":875,"x_min":0,"x_max":0,"o":"m 599 388 l 599 681 l 738 681 l 738 388 l 806 388 l 806 249 l 738 249 l 738 0 l 599 0 l 599 249 l 69 249 l 69 388 l 446 1021 l 606 1021 l 243 388 "},"5":{"ha":875,"x_min":0,"x_max":0,"o":"m 104 483 l 147 1021 l 738 1021 l 738 882 l 275 882 l 251 617 b 439 671 306 651 368 671 b 806 335 658 671 806 528 b 439 -4 806 142 658 -4 b 69 304 231 -4 83 126 l 208 304 b 439 135 224 193 332 135 b 667 335 554 135 667 204 b 439 532 667 465 554 532 b 238 456 368 532 282 506 "},"6":{"ha":875,"x_min":0,"x_max":0,"o":"m 628 785 b 457 886 608 832 556 886 b 211 568 294 886 224 736 b 438 706 247 633 342 706 b 806 357 700 706 806 522 b 438 -4 806 192 700 -4 b 69 510 175 -4 69 219 b 457 1025 69 772 194 1025 b 774 785 631 1025 746 907 m 438 135 b 667 357 635 135 667 299 b 438 567 667 415 635 567 b 213 385 304 567 228 440 b 438 135 226 276 278 135 "},"7":{"ha":875,"x_min":0,"x_max":0,"o":"m 431 0 l 278 0 l 653 882 l 69 882 l 69 1021 l 806 1021 l 806 882 "},"8":{"ha":875,"x_min":0,"x_max":0,"o":"m 139 754 b 438 1025 139 922 269 1025 b 736 754 606 1025 736 922 b 665 579 736 682 706 619 b 806 329 747 529 806 446 b 438 -4 806 122 644 -4 b 69 329 231 -4 69 122 b 204 582 69 446 121 531 b 139 754 164 624 139 681 m 367 504 b 208 329 267 482 208 410 b 438 135 208 229 296 135 b 667 329 579 135 667 229 b 438 499 667 429 579 499 b 367 504 413 499 389 500 m 597 754 b 438 886 597 836 528 886 b 278 754 347 886 278 836 b 519 632 278 633 394 644 b 597 754 567 651 597 701 "},"9":{"ha":875,"x_min":0,"x_max":0,"o":"m 247 236 b 418 135 267 189 319 135 b 664 453 581 135 651 285 b 438 315 628 388 533 315 b 69 664 175 315 69 499 b 438 1025 69 829 175 1025 b 806 511 700 1025 806 801 b 418 -4 806 249 681 -4 b 101 236 244 -4 129 114 m 438 886 b 208 664 240 886 208 722 b 438 454 208 606 240 454 b 663 636 571 454 647 581 b 438 886 649 744 597 886 "},"p":{"ha":857,"x_min":0,"x_max":0,"o":"m 447 782 b 803 389 639 782 803 606 b 406 -4 803 172 639 -4 b 208 49 351 -4 278 14 l 208 -301 l 69 -301 l 69 778 l 181 778 l 197 694 b 447 782 271 744 375 782 m 419 643 b 208 567 343 642 278 614 l 208 199 b 419 135 278 154 342 135 b 664 389 560 135 664 247 b 419 643 664 528 561 643 "},"I":{"ha":333,"x_min":0,"x_max":0,"o":"m 236 0 l 97 0 l 97 1021 l 236 1021 "},"T":{"ha":1000,"x_min":0,"x_max":0,"o":"m 569 0 l 431 0 l 431 896 l 69 896 l 69 1021 l 931 1021 l 931 896 l 569 896 "}," ":{"ha":417,"x_min":0,"x_max":0,"o":""},"E":{"ha":944,"x_min":0,"x_max":0,"o":"m 861 118 l 861 0 l 83 0 l 83 1021 l 819 1021 l 819 910 l 222 910 l 222 581 l 708 581 l 708 469 l 222 469 l 222 118 "},"L":{"ha":917,"x_min":0,"x_max":0,"o":"m 833 125 l 833 0 l 83 0 l 83 1021 l 222 1021 l 222 125 "},"A":{"ha":1111,"x_min":0,"x_max":0,"o":"m 222 0 l 83 0 l 389 1021 l 722 1021 l 1028 0 l 889 0 l 806 279 l 306 279 m 343 404 l 768 404 l 621 896 l 490 896 "},"F":{"ha":900,"x_min":0,"x_max":0,"o":"m 833 1021 l 833 889 l 222 889 l 222 594 l 708 594 l 708 463 l 222 463 l 222 0 l 83 0 l 83 1021 "},"V":{"ha":1111,"x_min":0,"x_max":0,"o":"m 490 125 l 621 125 l 889 1021 l 1028 1021 l 722 0 l 389 0 l 83 1021 l 222 1021 "},"K":{"ha":1047,"x_min":0,"x_max":0,"o":"m 964 10 l 908 -4 b 728 121 833 -4 765 40 l 596 401 b 524 463 582 436 556 463 l 222 463 l 222 0 l 83 0 l 83 1021 l 222 1021 l 222 588 l 499 588 b 568 643 526 588 554 608 l 686 896 b 867 1021 724 976 792 1021 l 908 1007 l 908 882 l 867 882 b 808 828 844 882 824 863 l 693 575 b 658 538 685 558 669 543 b 721 469 678 526 708 497 l 850 189 b 908 135 865 154 886 135 l 964 135 "},"N":{"ha":1022,"x_min":0,"x_max":0,"o":"m 800 1021 l 939 1021 l 939 0 l 678 0 l 254 903 l 222 903 l 222 0 l 83 0 l 83 1021 l 344 1021 l 768 118 l 800 118 "},"M":{"ha":1171,"x_min":0,"x_max":0,"o":"m 836 1021 l 1088 1021 l 1088 0 l 949 0 l 949 903 l 935 903 l 692 375 l 479 375 l 235 903 l 222 903 l 222 0 l 83 0 l 83 1021 l 335 1021 l 578 493 l 592 493 "},"O":{"ha":1204,"x_min":0,"x_max":0,"o":"m 601 886 b 213 511 379 886 213 701 b 601 135 213 288 410 135 b 992 511 826 135 992 321 b 601 886 992 739 789 886 m 601 1025 b 1131 511 886 1025 1131 794 b 601 -4 1131 226 886 -4 b 74 511 318 -4 74 226 b 601 1025 74 794 318 1025 "},"P":{"ha":978,"x_min":0,"x_max":0,"o":"m 83 1021 l 540 1021 b 894 667 736 1021 894 863 b 540 313 894 472 736 313 l 222 313 l 222 0 l 83 0 m 222 889 l 222 444 l 540 444 b 756 667 654 444 756 551 b 540 889 756 783 656 889 "},"B":{"ha":971,"x_min":0,"x_max":0,"o":"m 572 1021 b 849 743 726 1021 849 897 b 742 538 849 661 799 569 b 890 292 822 504 890 394 b 599 0 890 131 760 0 l 83 0 l 83 1021 m 599 125 b 751 292 683 125 751 207 b 599 463 751 376 683 463 l 222 463 l 222 125 m 572 588 b 710 743 649 589 710 668 b 572 896 710 821 649 896 l 222 896 l 222 588 "},"S":{"ha":1054,"x_min":0,"x_max":0,"o":"m 536 888 b 267 746 397 888 267 824 b 550 613 267 639 397 613 b 981 307 775 613 981 553 b 528 -4 981 115 744 -4 b 74 157 336 -4 188 57 l 156 278 b 526 135 246 189 369 135 b 826 307 713 135 826 222 b 557 469 826 431 713 469 b 113 746 351 469 113 515 b 536 1026 113 944 365 1026 b 922 926 658 1026 811 996 l 922 758 l 800 758 l 783 842 b 536 888 711 875 618 888 "},"C":{"ha":1075,"x_min":0,"x_max":0,"o":"m 810 847 b 601 888 750 876 679 888 b 213 511 410 888 213 735 b 601 135 213 288 410 135 b 903 275 726 135 833 192 l 1001 176 b 601 -4 903 67 758 -4 b 74 511 318 -4 74 226 b 601 1026 74 796 318 1026 b 949 926 724 1026 838 996 l 949 758 l 826 758 "},"D":{"ha":1046,"x_min":0,"x_max":0,"o":"m 83 0 l 83 1021 l 443 1021 b 972 511 728 1021 972 794 b 443 0 972 226 728 0 m 443 121 b 833 511 668 121 833 321 b 443 900 833 739 631 900 l 222 900 l 222 121 "},"ƒ":{"ha":617,"x_min":0,"x_max":0,"o":"m 506 513 l 338 513 l 164 -306 l 25 -306 l 199 513 l 60 513 l 86 638 l 225 638 l 253 768 b 519 1026 282 904 364 1026 l 608 999 l 588 901 l 493 901 b 392 768 439 901 404 825 l 364 638 l 532 638 "},"U":{"ha":1072,"x_min":0,"x_max":0,"o":"m 222 460 b 535 135 222 250 350 135 b 850 460 721 135 850 250 l 850 1021 l 989 1021 l 989 460 b 536 -4 989 143 767 -4 b 83 460 306 -4 83 143 l 83 1021 l 222 1021 "},"W":{"ha":1565,"x_min":0,"x_max":0,"o":"m 847 882 l 1028 139 l 1042 139 l 1306 1021 l 1444 1021 l 1139 0 l 931 0 l 750 743 l 736 743 l 556 0 l 347 0 l 42 1021 l 181 1021 l 444 139 l 458 139 l 639 882 "},"R":{"ha":978,"x_min":0,"x_max":0,"o":"m 881 10 l 783 -4 b 603 121 708 -4 640 40 l 539 257 b 481 313 525 292 503 311 l 222 313 l 222 0 l 83 0 l 83 1021 l 540 1021 b 894 667 736 1021 894 863 b 660 333 894 514 796 382 l 725 189 b 783 135 740 154 761 135 l 881 135 m 222 889 l 222 444 l 540 444 b 756 667 654 444 756 551 b 540 889 756 783 656 889 "},"G":{"ha":1071,"x_min":0,"x_max":0,"o":"m 199 511 b 588 135 199 288 396 135 b 849 233 690 135 781 174 l 849 463 l 515 463 l 515 588 l 988 588 l 988 176 b 588 -4 889 67 744 -4 b 60 511 304 -4 60 226 b 588 1026 60 796 304 1026 b 935 926 710 1026 824 996 l 935 758 l 813 758 l 796 847 b 588 888 736 876 665 888 b 199 511 396 888 199 735 "},"J":{"ha":974,"x_min":0,"x_max":0,"o":"m 224 344 b 488 135 224 218 324 135 b 751 428 651 135 751 218 l 751 1021 l 890 1021 l 890 428 b 488 -4 890 157 743 -4 b 83 344 233 -4 83 157 l 83 456 l 224 456 "},"Z":{"ha":917,"x_min":0,"x_max":0,"o":"m 69 193 l 722 868 l 722 896 l 69 896 l 69 1021 l 847 1021 l 847 826 l 194 151 l 194 125 l 847 125 l 847 0 l 69 0 "},"Q":{"ha":1204,"x_min":0,"x_max":0,"o":"m 1072 -299 b 778 -115 922 -299 856 -201 b 586 -4 731 -62 676 -4 b 74 511 310 -4 74 226 b 601 1025 74 794 318 1025 b 1131 511 886 1025 1131 794 b 818 42 1131 303 1000 124 b 1072 -160 910 -43 946 -160 l 1117 -160 l 1117 -285 m 601 886 b 213 511 379 886 213 701 b 601 135 213 288 410 135 b 992 511 826 135 992 321 b 601 886 992 739 789 886 "},"X":{"ha":972,"x_min":0,"x_max":0,"o":"m 511 463 l 461 463 l 193 0 l 47 0 l 356 539 l 75 1021 l 221 1021 l 475 588 l 496 588 l 751 1021 l 897 1021 l 615 539 l 925 0 l 779 0 "},"Y":{"ha":1117,"x_min":0,"x_max":0,"o":"m 904 1021 l 1043 1021 l 700 393 l 628 393 l 628 0 l 489 0 l 489 393 l 417 393 l 74 1021 l 213 1021 l 485 532 l 632 532 "},"Я":{"ha":992,"x_min":0,"x_max":0,"o":"m 97 135 l 194 135 b 253 189 217 135 238 154 l 318 333 b 83 667 182 382 83 514 b 438 1021 83 863 242 1021 l 908 1021 l 908 0 l 769 0 l 769 313 l 497 313 b 439 257 475 311 453 292 l 375 121 b 194 -4 338 40 269 -4 l 97 10 m 438 889 b 222 667 322 889 222 783 b 438 444 222 551 324 444 l 769 444 l 769 889 "},"М":{"ha":1213,"x_min":0,"x_max":0,"o":"m 836 1021 l 1088 1021 l 1088 0 l 949 0 l 949 903 l 935 903 l 692 375 l 479 375 l 235 903 l 222 903 l 222 0 l 83 0 l 83 1021 l 335 1021 l 578 493 l 592 493 "},"a":{"ha":844,"x_min":0,"x_max":0,"o":"m 69 247 b 333 499 69 386 168 499 b 636 443 471 499 560 481 l 636 492 b 444 653 636 597 546 653 b 257 615 360 653 313 644 l 249 560 l 138 560 l 138 696 b 444 782 232 750 308 782 b 775 465 636 782 775 682 l 775 0 l 664 0 l 642 115 b 333 -4 565 54 474 -4 b 69 247 168 -4 69 108 m 204 247 b 361 119 204 183 256 119 b 636 251 471 119 561 179 l 636 319 b 347 375 563 356 457 375 b 204 247 242 375 204 311 "},"o":{"ha":915,"x_min":0,"x_max":0,"o":"m 458 782 b 861 390 674 782 861 606 b 458 -4 861 172 674 -4 b 54 390 242 -4 54 172 b 458 782 54 606 242 782 m 458 643 b 193 390 317 643 193 529 b 458 135 193 249 317 135 b 722 390 600 135 722 249 b 458 643 722 529 600 643 "},"n":{"ha":844,"x_min":0,"x_max":0,"o":"m 69 0 l 69 778 l 181 778 l 203 660 b 504 782 290 726 414 782 b 775 486 650 782 775 685 l 775 0 l 636 0 l 636 494 b 486 650 636 576 576 650 b 208 526 389 650 303 601 l 208 0 "},"e":{"ha":872,"x_min":0,"x_max":0,"o":"m 444 131 b 669 228 578 131 646 200 l 754 121 b 444 -4 738 100 644 -4 b 54 390 228 -4 54 168 b 442 782 54 606 225 782 b 818 390 650 782 818 613 b 815 340 818 374 817 350 l 197 340 b 444 131 222 221 322 131 m 442 643 b 203 469 325 643 231 569 l 667 469 b 442 643 650 563 556 643 "},"l":{"ha":278,"x_min":0,"x_max":0,"o":"m 208 0 l 69 0 l 69 1060 l 208 1088 "},"z":{"ha":817,"x_min":0,"x_max":0,"o":"m 69 208 l 608 626 l 608 653 l 69 653 l 69 778 l 747 778 l 747 575 l 208 158 l 208 139 l 747 139 l 747 0 l 69 0 "},"i":{"ha":333,"x_min":0,"x_max":0,"o":"m 236 0 l 97 0 l 97 778 l 236 778 m 79 974 b 167 1054 79 1018 118 1054 b 256 974 215 1054 256 1018 b 167 894 256 929 215 894 b 79 974 118 894 79 929 "},"k":{"ha":851,"x_min":0,"x_max":0,"o":"m 208 340 l 208 0 l 69 0 l 69 1088 l 208 1088 l 208 469 l 418 469 b 474 531 438 472 461 497 l 521 653 b 701 778 557 733 626 778 l 756 764 l 756 639 l 701 639 b 643 585 679 639 657 619 l 596 463 b 542 406 588 440 554 413 b 593 354 554 401 583 374 l 669 189 b 728 135 685 154 706 135 l 782 135 l 782 10 l 728 -4 b 547 121 651 -4 585 40 l 471 286 b 415 340 456 318 438 338 "},"к":{"ha":879,"x_min":0,"x_max":0,"o":"m 208 340 l 208 0 l 69 0 l 69 778 l 208 778 l 208 469 l 446 469 b 501 531 465 472 489 497 l 549 653 b 729 778 585 733 654 778 l 783 764 l 783 639 l 729 639 b 671 585 707 639 685 619 l 624 463 b 569 406 615 440 582 413 b 621 354 582 401 611 374 l 697 189 b 756 135 713 154 733 135 l 810 135 l 810 10 l 756 -4 b 575 121 679 -4 613 40 l 499 286 b 443 340 483 318 465 338 "},"b":{"ha":857,"x_min":0,"x_max":0,"o":"m 419 -4 b 196 78 342 -4 261 31 l 181 0 l 69 0 l 69 1079 l 208 1079 l 208 718 b 419 782 274 757 349 782 b 803 389 639 782 803 606 b 419 -4 803 172 639 -4 m 419 135 b 664 389 561 135 664 250 b 419 643 664 531 560 643 b 208 578 342 643 278 622 l 208 211 b 419 135 278 163 343 135 "},"d":{"ha":843,"x_min":0,"x_max":0,"o":"m 424 -4 b 40 389 204 -4 40 172 b 424 782 40 606 204 782 b 635 718 494 782 568 757 l 635 1088 l 774 1088 l 774 0 l 663 0 l 646 78 b 424 -4 581 31 500 -4 m 424 135 b 635 211 499 135 564 163 l 635 579 b 424 643 564 624 500 643 b 179 389 283 643 179 531 b 424 135 179 250 282 135 "},"h":{"ha":844,"x_min":0,"x_max":0,"o":"m 486 650 b 208 526 389 650 303 601 l 208 0 l 69 0 l 69 1088 l 208 1088 l 208 664 b 476 782 294 729 388 782 b 775 486 650 782 775 685 l 775 0 l 636 0 l 636 494 b 486 650 636 576 583 650 "},"c":{"ha":839,"x_min":0,"x_max":0,"o":"m 451 643 b 193 390 310 643 193 543 b 451 135 193 235 310 135 b 697 228 626 135 697 231 l 785 118 b 451 -4 778 111 663 -4 b 54 390 235 -4 54 158 b 451 782 54 619 235 782 b 740 701 628 782 736 704 l 740 557 l 625 557 l 619 610 b 451 643 583 625 525 643 "},"q":{"ha":857,"x_min":0,"x_max":0,"o":"m 438 782 b 661 704 510 782 588 750 l 676 778 l 788 778 l 788 -301 l 649 -301 l 649 49 b 438 -4 578 14 506 -4 b 54 389 218 -4 54 172 b 438 782 54 606 218 782 m 438 643 b 193 389 296 643 193 528 b 438 135 193 247 297 135 b 649 199 514 135 578 154 l 649 578 b 438 643 579 622 513 642 "},"r":{"ha":753,"x_min":0,"x_max":0,"o":"m 69 0 l 69 778 l 181 778 l 201 664 b 472 782 281 728 383 782 b 683 735 583 782 653 753 l 683 557 l 568 557 l 558 635 b 472 653 549 642 519 653 b 208 526 375 653 297 601 l 208 0 "},"m":{"ha":1300,"x_min":0,"x_max":0,"o":"m 69 0 l 69 778 l 181 778 l 199 681 b 435 782 275 738 354 782 b 681 657 547 782 633 740 b 946 782 765 725 854 782 b 1231 486 1119 782 1231 685 l 1231 0 l 1092 0 l 1092 494 b 956 650 1092 576 1053 650 b 715 546 867 650 797 610 b 719 486 718 526 719 507 l 719 0 l 581 0 l 581 494 b 444 650 581 576 542 650 b 208 549 357 650 288 611 l 208 0 "},"u":{"ha":872,"x_min":0,"x_max":0,"o":"m 208 292 b 383 128 208 215 256 128 b 664 263 483 128 565 181 l 664 778 l 803 778 l 803 0 l 692 0 l 667 126 b 383 -4 576 57 476 -4 b 69 292 178 -4 69 117 l 69 778 l 208 778 "},"t":{"ha":571,"x_min":0,"x_max":0,"o":"m 389 -4 b 167 250 225 -4 167 103 l 167 653 l 56 653 l 56 778 l 167 778 l 194 976 l 306 976 l 306 778 l 488 778 l 488 653 l 306 653 l 306 250 b 389 128 306 167 344 128 l 488 128 l 488 10 "},"j":{"ha":458,"x_min":0,"x_max":0,"o":"m 50 -169 l 153 -169 b 250 -47 197 -169 250 -131 l 250 778 l 389 778 l 389 -47 b 153 -301 389 -194 317 -301 l 50 -287 m 232 974 b 319 1054 232 1018 271 1054 b 408 974 368 1054 408 1018 b 319 894 408 929 368 894 b 232 974 271 894 232 929 "},"g":{"ha":861,"x_min":0,"x_max":0,"o":"m 431 782 b 531 772 467 782 500 778 b 658 814 581 781 619 794 l 668 871 l 779 871 l 779 732 b 688 693 750 718 719 704 b 760 517 735 646 760 585 b 431 249 760 368 647 249 b 328 258 393 249 360 251 b 303 204 310 243 303 224 b 510 142 303 142 358 151 b 829 -79 738 126 829 38 b 431 -306 829 -214 717 -306 b 32 -79 146 -306 32 -214 b 208 118 32 11 85 82 b 171 204 185 143 171 172 b 219 300 171 247 190 274 b 101 517 142 349 101 428 b 431 782 101 663 215 782 m 431 653 b 233 517 301 653 233 590 b 431 378 233 442 301 378 b 628 517 560 378 628 442 b 431 653 628 590 560 653 m 431 15 b 164 -79 246 15 164 -19 b 431 -176 164 -140 246 -176 b 697 -79 615 -176 697 -140 b 431 15 697 -19 615 15 "},"v":{"ha":826,"x_min":0,"x_max":0,"o":"m 549 0 l 278 0 l 46 778 l 185 778 l 376 139 l 450 139 l 642 778 l 781 778 "},"w":{"ha":1335,"x_min":0,"x_max":0,"o":"m 46 778 l 185 778 l 376 139 l 406 139 l 556 639 l 779 639 l 929 139 l 958 139 l 1150 778 l 1289 778 l 1057 0 l 831 0 l 682 500 l 653 500 l 504 0 l 278 0 "},"y":{"ha":840,"x_min":0,"x_max":0,"o":"m 46 778 l 185 778 l 376 139 l 464 139 l 656 778 l 794 778 l 510 -176 b 329 -301 486 -257 404 -301 l 247 -287 l 247 -162 l 329 -162 b 389 -110 351 -162 382 -144 l 421 0 l 278 0 "},"x":{"ha":775,"x_min":0,"x_max":0,"o":"m 50 778 l 196 778 l 378 469 l 399 469 l 581 778 l 726 778 l 511 408 l 743 0 l 597 0 l 403 340 l 375 340 l 178 0 l 32 0 l 265 408 "},"f":{"ha":507,"x_min":0,"x_max":0,"o":"m 474 651 l 306 651 l 306 0 l 167 0 l 167 651 l 28 651 l 28 778 l 167 778 l 167 829 b 379 1088 167 965 224 1088 l 474 1060 l 474 963 l 379 963 b 306 829 325 963 306 886 l 306 778 l 474 778 "},"s":{"ha":846,"x_min":0,"x_max":0,"o":"m 424 -4 b 56 118 213 -4 63 113 l 129 217 b 424 121 154 199 260 121 b 642 240 533 121 642 156 b 424 333 642 292 615 333 b 85 557 179 333 85 415 b 424 782 85 682 228 782 b 733 701 600 782 729 704 l 733 564 l 626 564 l 606 619 b 424 656 564 642 518 656 b 226 557 300 656 226 611 b 424 469 226 508 265 469 b 785 240 649 469 785 410 b 424 -4 785 94 644 -4 "},"H":{"ha":1028,"x_min":0,"x_max":0,"o":"m 806 588 l 806 1021 l 944 1021 l 944 0 l 806 0 l 806 463 l 222 463 l 222 0 l 83 0 l 83 1021 l 222 1021 l 222 588 "},"А":{"ha":1111,"x_min":0,"x_max":0,"o":"m 222 0 l 83 0 l 389 1021 l 722 1021 l 1028 0 l 889 0 l 806 279 l 306 279 m 343 404 l 768 404 l 621 896 l 490 896 "},"В":{"ha":974,"x_min":0,"x_max":0,"o":"m 572 1021 b 849 743 726 1021 849 897 b 742 538 849 661 799 569 b 890 292 822 504 890 394 b 599 0 890 131 760 0 l 83 0 l 83 1021 m 599 125 b 751 292 683 125 751 207 b 599 463 751 376 683 463 l 222 463 l 222 125 m 572 588 b 710 743 649 589 710 668 b 572 896 710 821 649 896 l 222 896 l 222 588 "},"С":{"ha":1075,"x_min":0,"x_max":0,"o":"m 810 847 b 601 888 750 876 679 888 b 213 511 410 888 213 735 b 601 135 213 288 410 135 b 903 275 726 135 833 192 l 1001 176 b 601 -4 903 67 758 -4 b 74 511 318 -4 74 226 b 601 1026 74 796 318 1026 b 949 926 724 1026 838 996 l 949 758 l 826 758 "},"Е":{"ha":944,"x_min":0,"x_max":0,"o":"m 861 118 l 861 0 l 83 0 l 83 1021 l 819 1021 l 819 910 l 222 910 l 222 581 l 708 581 l 708 469 l 222 469 l 222 118 "},"с":{"ha":807,"x_min":0,"x_max":0,"o":"m 438 643 b 179 390 296 643 179 543 b 438 135 179 235 296 135 b 683 228 613 135 683 231 l 771 118 b 438 -4 764 111 649 -4 b 40 390 221 -4 40 158 b 438 782 40 619 221 782 b 726 701 614 782 722 704 l 726 564 l 625 564 l 606 610 b 438 643 569 625 511 643 "},"р":{"ha":857,"x_min":0,"x_max":0,"o":"m 447 782 b 803 389 639 782 803 606 b 406 -4 803 172 639 -4 b 208 49 351 -4 278 14 l 208 -301 l 69 -301 l 69 778 l 181 778 l 197 694 b 447 782 271 744 375 782 m 419 643 b 208 567 343 642 278 614 l 208 199 b 419 135 278 154 342 135 b 664 389 560 135 664 247 b 419 643 664 528 561 643 "},"е":{"ha":882,"x_min":0,"x_max":0,"o":"m 444 131 b 669 228 578 131 646 200 l 754 121 b 444 -4 738 100 644 -4 b 54 390 228 -4 54 168 b 442 782 54 606 225 782 b 818 390 650 782 818 613 b 815 340 818 374 817 350 l 197 340 b 444 131 222 221 322 131 m 442 643 b 203 469 325 643 231 569 l 667 469 b 442 643 650 563 556 643 "},"а":{"ha":844,"x_min":0,"x_max":0,"o":"m 69 247 b 333 499 69 386 168 499 b 636 443 471 499 560 481 l 636 492 b 444 653 636 597 546 653 b 257 615 360 653 313 644 l 249 560 l 138 560 l 138 696 b 444 782 232 750 308 782 b 775 465 636 782 775 682 l 775 0 l 664 0 l 642 115 b 333 -4 565 54 474 -4 b 69 247 168 -4 69 108 m 204 247 b 361 119 204 183 256 119 b 636 251 471 119 561 179 l 636 319 b 347 375 563 356 457 375 b 204 247 242 375 204 311 "},"н":{"ha":844,"x_min":0,"x_max":0,"o":"m 69 0 l 69 778 l 208 778 l 208 469 l 636 469 l 636 778 l 775 778 l 775 0 l 636 0 l 636 340 l 208 340 l 208 0 "},"о":{"ha":888,"x_min":0,"x_max":0,"o":"m 444 782 b 847 390 660 782 847 606 b 444 -4 847 172 660 -4 b 40 390 228 -4 40 172 b 444 782 40 606 228 782 m 444 643 b 179 390 303 643 179 529 b 444 135 179 249 303 135 b 708 390 586 135 708 249 b 444 643 708 529 586 643 "},"Н":{"ha":1028,"x_min":0,"x_max":0,"o":"m 806 588 l 806 1021 l 944 1021 l 944 0 l 806 0 l 806 463 l 222 463 l 222 0 l 83 0 l 83 1021 l 222 1021 l 222 588 "},"Г":{"ha":889,"x_min":0,"x_max":0,"o":"m 806 1021 l 806 896 l 222 896 l 222 0 l 83 0 l 83 1021 "},"и":{"ha":844,"x_min":0,"x_max":0,"o":"m 636 0 l 636 649 l 596 649 l 313 0 l 69 0 l 69 778 l 208 778 l 208 129 l 236 129 l 522 778 l 775 778 l 775 0 "},"И":{"ha":1022,"x_min":0,"x_max":0,"o":"m 344 0 l 83 0 l 83 1021 l 222 1021 l 222 118 l 254 118 l 678 1021 l 939 1021 l 939 0 l 800 0 l 800 903 l 768 903 "},"К":{"ha":1047,"x_min":0,"x_max":0,"o":"m 964 10 l 908 -4 b 728 121 833 -4 765 40 l 596 401 b 524 463 582 436 556 463 l 222 463 l 222 0 l 83 0 l 83 1021 l 222 1021 l 222 588 l 499 588 b 568 643 526 588 554 608 l 686 896 b 867 1021 724 976 792 1021 l 908 1007 l 908 882 l 867 882 b 808 828 844 882 824 863 l 693 575 b 658 538 685 558 669 543 b 721 469 678 526 708 497 l 850 189 b 908 135 865 154 886 135 l 964 135 "},"Л":{"ha":1117,"x_min":0,"x_max":0,"o":"m 83 135 l 178 135 b 243 226 201 135 229 163 l 379 896 l 281 910 l 281 1021 l 1033 1021 l 1033 0 l 894 0 l 894 896 l 518 896 l 383 226 b 178 -4 357 94 290 -4 l 83 10 "},"П":{"ha":1028,"x_min":0,"x_max":0,"o":"m 83 1021 l 944 1021 l 944 0 l 806 0 l 806 896 l 222 896 l 222 0 l 83 0 "},"О":{"ha":1176,"x_min":0,"x_max":0,"o":"m 588 886 b 199 511 365 886 199 701 b 588 135 199 288 396 135 b 978 511 813 135 978 321 b 588 886 978 739 775 886 m 588 1025 b 1117 511 872 1025 1117 794 b 588 -4 1117 226 872 -4 b 60 511 304 -4 60 226 b 588 1025 60 794 304 1025 "},"Р":{"ha":978,"x_min":0,"x_max":0,"o":"m 83 1021 l 540 1021 b 894 667 736 1021 894 863 b 540 313 894 472 736 313 l 222 313 l 222 0 l 83 0 m 222 889 l 222 444 l 540 444 b 756 667 654 444 756 551 b 540 889 756 783 656 889 "},"Т":{"ha":1000,"x_min":0,"x_max":0,"o":"m 569 0 l 431 0 l 431 896 l 69 896 l 69 1021 l 931 1021 l 931 896 l 569 896 "},"Х":{"ha":972,"x_min":0,"x_max":0,"o":"m 511 463 l 461 463 l 193 0 l 47 0 l 356 539 l 75 1021 l 221 1021 l 475 588 l 496 588 l 751 1021 l 897 1021 l 615 539 l 925 0 l 779 0 "},"х":{"ha":828,"x_min":0,"x_max":0,"o":"m 50 778 l 196 778 l 378 469 l 399 469 l 581 778 l 726 778 l 511 408 l 743 0 l 597 0 l 403 340 l 375 340 l 178 0 l 32 0 l 265 408 "},"Ю":{"ha":1546,"x_min":0,"x_max":0,"o":"m 957 1025 b 1486 511 1242 1025 1486 794 b 957 -4 1486 226 1242 -4 b 432 463 689 -4 457 200 l 208 463 l 208 0 l 69 0 l 69 1021 l 208 1021 l 208 588 l 435 588 b 957 1025 474 835 699 1025 m 957 886 b 568 511 735 886 568 701 b 957 135 568 288 765 135 b 1347 511 1182 135 1347 321 b 957 886 1347 739 1144 886 "},"п":{"ha":844,"x_min":0,"x_max":0,"o":"m 69 0 l 69 778 l 775 778 l 775 0 l 636 0 l 636 649 l 208 649 l 208 0 "},"Ш":{"ha":1472,"x_min":0,"x_max":0,"o":"m 667 1021 l 806 1021 l 806 125 l 1250 125 l 1250 1021 l 1389 1021 l 1389 0 l 83 0 l 83 1021 l 222 1021 l 222 125 l 667 125 "},"Ц":{"ha":1083,"x_min":0,"x_max":0,"o":"m 875 -208 l 861 0 l 83 0 l 83 1021 l 222 1021 l 222 125 l 764 125 l 764 1021 l 903 1021 l 903 125 l 1000 125 l 1000 -208 "},"ц":{"ha":886,"x_min":0,"x_max":0,"o":"m 719 -194 l 706 0 l 69 0 l 69 778 l 208 778 l 208 129 l 608 129 l 608 778 l 747 778 l 747 129 l 844 129 l 844 -194 "},"т":{"ha":833,"x_min":0,"x_max":0,"o":"m 347 0 l 347 649 l 69 649 l 69 778 l 764 778 l 764 649 l 486 649 l 486 0 "},"я":{"ha":824,"x_min":0,"x_max":0,"o":"m 86 10 l 86 135 l 154 135 b 194 164 171 135 185 142 l 253 290 b 69 531 147 318 69 415 b 315 778 69 665 181 778 l 754 778 l 754 0 l 615 0 l 615 282 l 404 282 l 314 92 b 154 -4 286 33 225 -4 m 208 531 b 315 421 208 469 257 421 l 615 421 l 615 639 l 318 639 b 208 531 258 639 208 590 "},"ю":{"ha":1263,"x_min":0,"x_max":0,"o":"m 69 0 l 69 778 l 208 778 l 208 469 l 410 469 b 806 782 449 647 615 782 b 1208 390 1021 782 1208 606 b 806 -4 1208 172 1021 -4 b 404 340 606 -4 429 146 l 208 340 l 208 0 m 806 643 b 540 390 664 643 540 529 b 806 135 540 249 664 135 b 1069 390 947 135 1069 249 b 806 643 1069 529 947 643 "},"Щ":{"ha":1569,"x_min":0,"x_max":0,"o":"m 83 1021 l 222 1021 l 222 125 l 667 125 l 667 1021 l 806 1021 l 806 125 l 1250 125 l 1250 1021 l 1389 1021 l 1389 125 l 1486 125 l 1486 -208 l 1361 -208 l 1347 0 l 83 0 "},"ш":{"ha":1175,"x_min":0,"x_max":0,"o":"m 650 778 l 650 129 l 953 129 l 953 778 l 1092 778 l 1092 0 l 69 0 l 69 778 l 208 778 l 208 129 l 511 129 l 511 778 "},"щ":{"ha":1258,"x_min":0,"x_max":0,"o":"m 650 778 l 650 129 l 953 129 l 953 778 l 1092 778 l 1092 129 l 1189 129 l 1189 -194 l 1064 -194 l 1050 0 l 69 0 l 69 778 l 208 778 l 208 129 l 511 129 l 511 778 "},"э":{"ha":821,"x_min":0,"x_max":0,"o":"m 369 782 b 767 390 586 782 767 619 b 369 -4 767 158 586 -4 b 36 118 158 -4 43 111 l 124 228 b 369 135 124 231 194 135 b 624 340 494 135 601 214 l 203 340 l 203 469 l 615 469 b 369 643 583 576 485 643 b 201 610 293 643 238 625 l 189 564 l 81 564 l 81 701 b 369 782 85 704 193 782 "},"Э":{"ha":1032,"x_min":0,"x_max":0,"o":"m 825 588 b 444 888 786 768 613 888 b 236 847 365 888 294 876 l 219 772 l 97 772 l 97 926 b 444 1026 208 996 322 1026 b 972 511 728 1026 972 796 b 444 -4 972 226 728 -4 b 44 176 288 -4 143 67 l 143 275 b 444 135 213 192 319 135 b 829 463 622 135 804 265 l 250 463 l 250 588 "},"Ч":{"ha":1019,"x_min":0,"x_max":0,"o":"m 222 1021 l 222 667 b 438 444 222 551 324 444 l 797 444 l 797 1021 l 936 1021 l 936 0 l 797 0 l 797 313 l 438 313 b 83 667 242 313 83 472 l 83 1021 "},"Б":{"ha":974,"x_min":0,"x_max":0,"o":"m 83 1021 l 808 1021 l 808 896 l 222 896 l 222 601 l 599 601 b 890 301 760 601 890 463 b 599 0 890 140 760 0 l 83 0 m 222 125 l 599 125 b 751 301 683 125 751 217 b 599 476 751 386 683 476 l 222 476 "},"б":{"ha":915,"x_min":0,"x_max":0,"o":"m 514 740 b 861 369 708 740 861 606 b 458 -4 861 151 674 -4 b 54 390 242 -4 54 158 b 403 961 54 626 83 881 b 622 1028 510 988 586 1003 l 642 1088 l 743 1088 l 743 928 b 443 836 675 885 586 874 b 208 614 292 797 232 717 b 514 740 286 685 390 740 m 193 392 b 458 135 193 250 319 135 b 722 369 600 135 722 228 b 486 601 722 529 593 601 b 193 471 371 601 265 554 "},"м":{"ha":974,"x_min":0,"x_max":0,"o":"m 69 0 l 69 778 l 328 778 l 461 407 l 497 407 l 632 778 l 890 778 l 890 0 l 751 0 l 751 649 l 713 649 l 581 278 l 379 278 l 247 649 l 208 649 l 208 0 "},"ч":{"ha":831,"x_min":0,"x_max":0,"o":"m 622 0 l 622 271 l 319 271 b 69 521 179 271 69 385 l 69 778 l 208 778 l 208 521 b 319 406 208 458 257 406 l 622 406 l 622 778 l 761 778 l 761 0 "},"ж":{"ha":1369,"x_min":0,"x_max":0,"o":"m 754 340 l 754 0 l 615 0 l 615 340 l 436 340 b 381 286 408 338 394 318 l 304 121 b 124 -4 267 40 199 -4 l 69 10 l 69 135 l 124 135 b 182 189 146 135 165 154 l 258 354 b 310 406 267 374 297 401 b 256 463 296 413 264 440 l 208 585 b 150 639 194 619 172 639 l 96 639 l 96 764 l 150 778 b 331 653 225 778 294 733 l 378 531 b 433 469 390 497 413 472 l 615 469 l 615 778 l 754 778 l 754 469 l 936 469 b 992 531 956 472 979 497 l 1039 653 b 1219 778 1075 733 1144 778 l 1274 764 l 1274 639 l 1219 639 b 1161 585 1197 639 1175 619 l 1114 463 b 1060 406 1106 440 1072 413 b 1111 354 1072 401 1101 374 l 1188 189 b 1246 135 1203 154 1224 135 l 1300 135 l 1300 10 l 1246 -4 b 1065 121 1169 -4 1103 40 l 989 286 b 933 340 974 318 956 338 "},"в":{"ha":838,"x_min":0,"x_max":0,"o":"m 768 236 b 532 0 768 106 663 0 l 69 0 l 69 778 l 504 778 b 728 557 628 778 728 679 b 653 421 728 513 701 446 b 768 236 711 396 768 314 m 208 336 l 208 135 l 532 135 b 629 236 586 135 629 183 b 532 336 629 290 586 336 m 208 643 l 208 471 l 521 471 b 589 557 554 474 589 510 b 504 643 589 603 550 643 "},"г":{"ha":706,"x_min":0,"x_max":0,"o":"m 69 0 l 69 778 l 636 778 l 636 649 l 208 649 l 208 0 "},"ф":{"ha":1242,"x_min":0,"x_max":0,"o":"m 551 1088 l 690 1088 l 690 721 b 867 782 747 774 813 782 b 1188 389 1058 782 1188 606 b 867 -4 1188 172 1058 -4 b 690 44 813 -4 747 8 l 690 -301 l 551 -301 l 551 44 b 375 -4 494 8 429 -4 b 54 389 183 -4 54 172 b 375 782 54 606 183 782 b 551 721 429 782 494 774 m 839 653 b 690 592 779 651 739 631 l 690 175 b 839 125 739 140 778 125 b 1049 389 979 125 1049 247 b 839 653 1049 528 981 653 m 403 653 b 193 389 261 653 193 528 b 403 125 193 247 263 125 b 551 175 464 125 503 140 l 551 592 b 403 653 503 631 463 651 "},"л":{"ha":890,"x_min":0,"x_max":0,"o":"m 193 778 l 821 778 l 821 0 l 682 0 l 682 649 l 414 649 l 304 121 b 124 -4 288 39 199 -4 l 56 10 l 56 135 l 124 135 b 182 189 146 135 175 154 l 276 649 l 193 663 "},"З":{"ha":1010,"x_min":0,"x_max":0,"o":"m 504 1026 b 928 746 675 1026 928 944 b 778 561 928 653 835 574 b 967 307 857 531 967 443 b 514 -4 967 115 731 -4 b 60 157 322 -4 174 57 l 142 278 b 513 135 232 189 356 135 b 813 307 699 135 813 222 b 543 485 813 431 699 485 l 414 485 l 414 624 l 546 624 b 774 746 643 624 774 639 b 504 888 774 824 643 888 b 256 842 421 888 329 875 l 240 772 l 118 772 l 118 926 b 504 1026 229 996 382 1026 "},"ь":{"ha":851,"x_min":0,"x_max":0,"o":"m 69 778 l 208 778 l 208 497 l 532 497 b 782 250 669 497 782 388 b 532 0 782 111 669 0 l 69 0 m 532 135 b 647 250 596 135 647 186 b 532 363 647 314 596 363 l 208 363 l 208 135 "},"Д":{"ha":1181,"x_min":0,"x_max":0,"o":"m 131 125 b 210 226 156 125 196 163 l 346 896 l 247 910 l 247 1021 l 1000 1021 l 1000 125 l 1097 125 l 1097 -208 l 972 -208 l 958 0 l 222 0 l 208 -208 l 83 -208 l 83 125 m 861 125 l 861 896 l 485 896 l 350 226 b 304 125 342 189 324 154 "},"д":{"ha":1011,"x_min":0,"x_max":0,"o":"m 203 778 l 844 778 l 844 129 l 942 129 l 942 -194 l 817 -194 l 803 0 l 208 0 l 194 -194 l 69 -194 l 69 129 l 147 129 b 206 189 169 129 199 154 l 300 653 l 203 667 m 706 129 l 706 653 l 438 653 l 329 129 "},"у":{"ha":854,"x_min":0,"x_max":0,"o":"m 46 778 l 185 778 l 376 139 l 478 139 l 669 778 l 808 778 l 524 -176 b 343 -301 500 -257 418 -301 l 261 -287 l 261 -162 l 343 -162 b 403 -110 365 -162 396 -144 l 435 0 l 278 0 "},"У":{"ha":1025,"x_min":0,"x_max":0,"o":"m 449 -4 l 322 24 l 322 135 l 504 135 b 567 189 526 135 557 156 l 603 307 l 422 307 b 243 446 325 307 267 369 l 69 1021 l 208 1021 l 369 482 b 431 432 378 456 404 432 l 640 432 l 817 1021 l 956 1021 l 685 121 b 504 -4 661 43 579 -4 "},"Ф":{"ha":1372,"x_min":0,"x_max":0,"o":"m 756 0 l 617 0 l 617 144 l 460 144 b 69 531 247 144 69 318 b 460 918 69 747 238 918 l 617 918 l 617 1021 l 756 1021 l 756 918 l 913 918 b 1303 531 1133 918 1303 747 b 913 144 1303 318 1124 144 l 756 144 m 206 531 b 460 274 206 390 319 274 l 617 274 l 617 789 l 460 789 b 206 531 319 789 206 671 m 913 274 b 1167 531 1053 274 1167 390 b 913 789 1167 671 1053 789 l 756 789 l 756 274 "},"з":{"ha":840,"x_min":0,"x_max":0,"o":"m 308 468 l 431 468 b 617 554 603 468 617 515 b 417 650 617 604 540 650 b 226 606 333 650 267 625 l 222 564 l 107 564 l 107 700 b 417 782 111 704 240 782 b 756 554 613 782 756 679 b 669 407 756 488 708 425 b 785 240 722 383 785 318 b 424 -4 785 93 631 -4 b 56 118 213 -4 63 113 l 143 225 b 424 132 149 221 249 132 b 646 240 519 132 646 160 b 424 335 646 294 615 335 l 308 335 "},"ы":{"ha":1042,"x_min":0,"x_max":0,"o":"m 69 778 l 208 778 l 208 497 l 490 497 b 740 250 628 497 740 388 b 490 0 740 111 628 0 l 69 0 m 833 778 l 972 778 l 972 0 l 833 0 m 490 135 b 606 250 554 135 606 186 b 490 363 606 314 554 363 l 208 363 l 208 135 "},"ъ":{"ha":1004,"x_min":0,"x_max":0,"o":"m 69 778 l 389 778 l 389 497 l 685 497 b 935 250 822 497 935 388 b 685 0 935 111 822 0 l 250 0 l 250 649 l 69 649 m 685 135 b 800 250 749 135 800 186 b 685 363 800 314 749 363 l 389 363 l 389 135 "},"Ь":{"ha":1006,"x_min":0,"x_max":0,"o":"m 83 1021 l 222 1021 l 222 681 l 582 681 b 922 340 778 681 922 535 b 582 0 922 144 778 0 l 83 0 m 582 128 b 783 336 697 128 783 219 b 582 544 783 451 696 544 l 222 544 l 222 128 "},"Ы":{"ha":1194,"x_min":0,"x_max":0,"o":"m 83 1021 l 222 1021 l 222 681 l 526 681 b 867 340 722 681 867 535 b 526 0 867 144 722 0 l 83 0 m 526 128 b 728 336 642 128 728 219 b 526 544 728 451 640 544 l 222 544 l 222 128 m 1111 0 l 972 0 l 972 1021 l 1111 1021 "},"Ъ":{"ha":1174,"x_min":0,"x_max":0,"o":"m 83 1021 l 431 1021 l 431 681 l 749 681 b 1089 340 944 681 1089 535 b 749 0 1089 144 944 0 l 292 0 l 292 896 l 83 896 m 749 128 b 950 336 864 128 950 219 b 749 544 950 451 863 544 l 431 544 l 431 128 "},"Ж":{"ha":1567,"x_min":0,"x_max":0,"o":"m 475 643 b 544 594 489 608 522 594 l 714 594 l 714 1021 l 853 1021 l 853 594 l 1022 594 b 1092 643 1044 594 1078 608 l 1210 896 b 1386 1021 1247 976 1311 1021 l 1428 1007 l 1428 882 l 1386 882 b 1331 833 1365 882 1344 864 l 1238 629 b 1160 538 1219 589 1192 547 b 1264 418 1199 522 1239 474 l 1369 189 b 1428 135 1385 154 1406 135 l 1483 135 l 1483 10 l 1428 -4 b 1247 121 1353 -4 1285 40 l 1115 401 b 1043 456 1101 436 1065 456 l 853 456 l 853 0 l 714 0 l 714 456 l 524 456 b 451 401 501 456 465 436 l 319 121 b 139 -4 282 40 214 -4 l 83 10 l 83 135 l 139 135 b 197 189 161 135 181 154 l 303 418 b 407 538 328 474 368 522 b 329 629 375 547 347 589 l 236 833 b 181 882 222 864 201 882 l 139 882 l 139 1007 l 181 1021 b 357 896 256 1021 319 976 "},"й":{"ha":844,"x_min":0,"x_max":0,"o":"m 635 1042 b 422 863 635 938 547 863 b 210 1042 297 863 210 938 l 311 1042 b 422 957 315 982 349 957 b 532 1042 496 957 528 981 m 636 0 l 636 639 l 592 639 l 314 0 l 69 0 l 69 778 l 208 778 l 208 139 l 240 139 l 521 778 l 775 778 l 775 0 "},"Й":{"ha":1022,"x_min":0,"x_max":0,"o":"m 738 1263 b 511 1085 738 1158 636 1085 b 285 1263 386 1085 285 1158 l 386 1263 b 511 1175 390 1203 438 1175 b 635 1263 585 1175 631 1201 m 344 0 l 83 0 l 83 1021 l 222 1021 l 222 118 l 254 118 l 678 1021 l 939 1021 l 939 0 l 800 0 l 800 903 l 768 903 "},".":{"ha":357,"x_min":0,"x_max":0,"o":"m 79 85 b 176 175 79 135 122 175 b 278 85 233 175 278 135 b 176 -4 278 35 233 -4 b 79 85 122 -4 79 35 "},"—":{"ha":1472,"x_min":0,"x_max":0,"o":"m 1389 528 l 1389 417 l 83 417 l 83 528 "},"–":{"ha":1046,"x_min":0,"x_max":0,"o":"m 963 528 l 963 417 l 83 417 l 83 528 "},"-":{"ha":629,"x_min":0,"x_max":0,"o":"m 546 528 l 546 417 l 83 417 l 83 528 "},"Ё":{"ha":944,"x_min":0,"x_max":0,"o":"m 224 1188 b 304 1263 224 1231 258 1263 b 386 1188 350 1263 386 1231 b 304 1114 386 1144 350 1114 b 224 1188 258 1114 224 1144 m 529 1188 b 610 1263 529 1231 564 1263 b 692 1188 656 1263 692 1231 b 610 1114 692 1144 656 1114 b 529 1188 564 1114 529 1144 m 861 118 l 861 0 l 83 0 l 83 1021 l 819 1021 l 819 910 l 222 910 l 222 581 l 708 581 l 708 469 l 222 469 l 222 118 "},"ё":{"ha":882,"x_min":0,"x_max":0,"o":"m 222 950 b 303 1025 222 993 257 1025 b 385 950 349 1025 385 993 b 303 876 385 907 349 876 b 222 950 257 876 222 907 m 514 950 b 594 1025 514 993 549 1025 b 676 950 640 1025 676 993 b 594 876 676 907 640 876 b 514 950 549 876 514 907 m 444 131 b 669 228 578 131 646 200 l 754 121 b 444 -4 738 100 644 -4 b 54 390 228 -4 54 168 b 442 782 54 606 225 782 b 818 390 650 782 818 613 b 815 340 818 374 817 350 l 197 340 b 444 131 222 221 322 131 m 442 643 b 203 469 325 643 231 569 l 667 469 b 442 643 650 563 556 643 "},"!":{"ha":358,"x_min":0,"x_max":0,"o":"m 82 85 b 179 175 82 135 125 175 b 281 85 236 175 281 135 b 179 -4 281 35 236 -4 b 82 85 125 -4 82 35 m 253 292 l 125 292 l 125 1021 l 253 1021 "},",":{"ha":358,"x_min":0,"x_max":0,"o":"m 79 93 b 176 175 79 143 122 175 b 279 60 250 175 279 125 b 153 -185 279 -58 201 -142 l 117 -154 b 182 -21 158 -112 182 -60 b 176 8 182 -10 181 0 b 79 93 111 8 79 43 "},"?":{"ha":728,"x_min":0,"x_max":0,"o":"m 263 85 b 360 175 263 135 306 175 b 461 85 417 175 461 135 b 360 -4 461 35 417 -4 b 263 85 306 -4 263 35 m 422 292 l 297 292 l 297 369 b 433 586 297 464 353 549 b 550 751 519 626 550 671 b 360 888 550 850 451 888 b 118 739 228 888 157 782 l 14 831 b 360 1026 78 906 188 1026 b 689 751 529 1026 689 929 b 493 460 689 608 621 521 b 422 369 446 438 422 397 "},"$":{"ha":1022,"x_min":0,"x_max":0,"o":"m 551 1129 l 551 1025 b 894 926 665 1018 796 988 l 894 731 l 772 731 l 756 842 b 551 886 696 869 621 883 l 551 611 b 953 307 753 606 953 542 b 551 -1 953 131 753 14 l 551 -69 l 454 -69 l 454 -3 b 46 157 285 6 150 65 l 128 278 b 454 136 208 197 318 144 l 454 471 b 85 746 269 483 85 543 b 454 1024 85 924 289 1008 l 454 1129 m 799 307 b 551 469 799 424 694 465 l 551 138 b 799 307 706 151 799 231 m 239 746 b 454 614 239 654 332 622 l 454 883 b 239 746 338 869 239 813 "},"&":{"ha":1157,"x_min":0,"x_max":0,"o":"m 931 740 l 1056 740 l 1069 679 b 942 488 1069 592 1017 519 b 975 332 964 443 975 394 b 528 -4 975 93 729 -4 b 89 317 335 -4 89 97 b 260 554 89 432 174 508 b 163 740 213 589 163 642 b 514 1025 163 943 353 1025 b 836 740 689 1025 836 929 l 699 740 b 514 896 699 850 615 896 b 301 740 413 896 301 850 b 435 600 301 681 350 600 l 435 486 b 228 317 336 486 228 425 b 528 125 228 182 404 125 b 836 332 685 125 836 204 b 781 488 836 369 832 435 l 708 488 b 639 401 669 488 639 440 l 639 340 l 521 340 l 507 401 b 708 600 507 517 593 600 l 861 600 b 931 679 900 600 931 642 "},"€":{"ha":1079,"x_min":0,"x_max":0,"o":"m 118 460 b 115 511 115 476 115 493 l 115 543 l 40 543 l 78 640 l 132 640 b 643 1026 193 863 403 1026 b 997 892 778 1026 903 975 l 942 749 b 643 888 872 832 768 888 b 278 640 492 888 335 792 l 900 640 l 863 543 l 254 543 l 254 511 b 257 460 254 493 254 476 l 831 460 l 793 363 l 286 363 b 643 135 350 222 497 135 b 944 275 768 135 875 192 l 1043 176 b 643 -4 944 67 800 -4 b 138 363 411 -4 206 150 l 40 363 l 78 460 "},"‡":{"ha":494,"x_min":0,"x_max":0,"o":"m 479 778 l 479 667 l 303 667 l 303 192 l 479 192 l 479 81 l 303 81 l 303 -162 l 192 -162 l 192 81 l 17 81 l 17 192 l 192 192 l 192 667 l 17 667 l 17 778 l 192 778 l 192 1021 l 303 1021 l 303 778 "},":":{"ha":357,"x_min":0,"x_max":0,"o":"m 79 85 b 176 175 79 135 122 175 b 278 85 233 175 278 135 b 176 -4 278 35 233 -4 b 79 85 122 -4 79 35 m 79 692 b 176 782 79 742 122 782 b 278 692 233 782 278 742 b 176 603 278 642 233 603 b 79 692 122 603 79 642 "},"/":{"ha":500,"x_min":0,"x_max":0,"o":"m 375 1101 l 486 1101 l 125 -93 l 14 -93 "},"|":{"ha":375,"x_min":0,"x_max":0,"o":"m 139 1088 l 236 1088 l 236 -162 l 139 -162 "},"\\":{"ha":500,"x_min":0,"x_max":0,"o":"m 486 -93 l 375 -93 l 14 1101 l 125 1101 "},"Ø":{"ha":1204,"x_min":0,"x_max":0,"o":"m 601 1025 b 894 936 708 1025 810 992 l 964 1021 l 1075 1021 l 963 883 b 1131 511 1065 789 1131 657 b 601 -4 1131 226 886 -4 b 310 83 494 -4 394 28 l 242 0 l 131 0 l 242 136 b 74 511 139 231 74 363 b 601 1025 74 794 318 1025 m 601 886 b 213 511 379 886 213 701 b 329 243 213 401 260 310 l 806 828 b 601 886 743 865 671 886 m 601 135 b 992 511 826 135 992 321 b 875 776 992 619 944 711 l 399 192 b 601 135 460 156 531 135 "},"ø":{"ha":915,"x_min":0,"x_max":0,"o":"m 458 782 b 661 726 531 782 601 761 l 700 778 l 811 778 l 733 674 b 861 390 811 601 861 501 b 458 -4 861 172 674 -4 b 263 46 388 -4 321 14 l 228 0 l 117 0 l 189 97 b 54 390 107 169 54 274 b 458 782 54 606 242 782 m 458 643 b 193 390 317 643 193 529 b 272 208 193 319 224 256 l 578 614 b 458 643 542 632 500 643 m 458 135 b 722 390 600 135 722 249 b 650 563 722 456 694 517 l 347 160 b 458 135 381 143 418 135 "},"]":{"ha":396,"x_min":0,"x_max":0,"o":"m 76 -162 l 76 -79 l 201 -79 l 201 976 l 76 976 l 76 1060 l 313 1060 l 313 -162 "},"[":{"ha":396,"x_min":0,"x_max":0,"o":"m 83 -162 l 83 1088 l 319 1088 l 319 1004 l 194 1004 l 194 -79 l 319 -79 l 319 -162 "},";":{"ha":358,"x_min":0,"x_max":0,"o":"m 79 93 b 176 175 79 143 122 175 b 279 60 250 175 279 125 b 153 -185 279 -58 201 -142 l 117 -154 b 193 0 153 -108 193 -57 b 79 93 111 0 79 43 m 79 692 b 176 782 79 742 122 782 b 278 692 233 782 278 742 b 176 603 278 642 233 603 b 79 692 122 603 79 642 "},"_":{"ha":876,"x_min":0,"x_max":0,"o":"m 876 -83 l 876 -181 l 0 -181 l 0 -83 "},"=":{"ha":628,"x_min":0,"x_max":0,"o":"m 546 639 l 546 528 l 83 528 l 83 639 m 546 417 l 546 306 l 83 306 l 83 417 "},"+":{"ha":629,"x_min":0,"x_max":0,"o":"m 369 240 l 258 240 l 258 417 l 83 417 l 83 528 l 258 528 l 258 703 l 369 703 l 369 528 l 546 528 l 546 417 l 369 417 "},"#":{"ha":893,"x_min":0,"x_max":0,"o":"m 750 929 l 679 694 l 810 694 l 810 583 l 644 583 l 594 417 l 754 417 l 754 306 l 561 306 l 488 63 l 376 63 l 450 306 l 311 306 l 238 63 l 126 63 l 200 306 l 69 306 l 69 417 l 233 417 l 283 583 l 125 583 l 125 694 l 318 694 l 389 929 l 500 929 l 429 694 l 568 694 l 639 929 m 344 417 l 483 417 l 533 583 l 394 583 "},"•":{"ha":625,"x_min":0,"x_max":0,"o":"m 419 469 b 313 367 419 411 376 367 b 206 469 249 367 206 411 b 313 574 206 528 249 574 b 419 469 376 574 419 528 "},"·":{"ha":333,"x_min":0,"x_max":0,"o":"m 68 460 b 165 550 68 510 111 550 b 267 460 222 550 267 510 b 165 371 267 410 222 371 b 68 460 111 371 68 410 "},"`":{"ha":314,"x_min":0,"x_max":0,"o":"m 49 1021 l 176 1021 l 265 863 l 175 863 "},"‘":{"ha":358,"x_min":0,"x_max":0,"o":"m 279 785 b 182 703 279 735 236 703 b 79 818 108 703 79 753 b 206 1063 79 936 157 1019 l 242 1032 b 176 899 200 990 176 938 b 182 869 176 888 178 878 b 279 785 247 869 279 835 "},")":{"ha":386,"x_min":0,"x_max":0,"o":"m 174 449 b 11 1060 174 729 94 907 l 78 1060 b 304 449 178 946 304 767 b 78 -162 304 131 178 -49 l 11 -162 b 174 449 94 -10 174 168 "},"(":{"ha":386,"x_min":0,"x_max":0,"o":"m 213 449 b 375 -162 213 168 292 -10 l 308 -162 b 82 449 208 -49 82 131 b 308 1060 82 767 208 946 l 375 1060 b 213 449 292 907 213 729 "},"’":{"ha":358,"x_min":0,"x_max":0,"o":"m 79 981 b 176 1063 79 1031 122 1063 b 279 947 250 1063 279 1013 b 153 703 279 829 201 746 l 117 733 b 182 867 158 775 182 828 b 176 896 182 878 181 888 b 79 981 111 896 79 931 "},"“":{"ha":650,"x_min":0,"x_max":0,"o":"m 279 785 b 182 703 279 735 236 703 b 79 818 108 703 79 753 b 206 1063 79 936 157 1019 l 242 1032 b 176 899 200 990 176 938 b 182 869 176 888 178 878 b 279 785 247 869 279 835 m 571 785 b 474 703 571 735 528 703 b 371 818 400 703 371 753 b 497 1063 371 936 449 1019 l 533 1032 b 468 899 492 990 468 938 b 474 869 468 888 469 878 b 571 785 539 869 571 835 "},"”":{"ha":650,"x_min":0,"x_max":0,"o":"m 79 981 b 176 1063 79 1031 122 1063 b 279 947 250 1063 279 1013 b 153 703 279 829 201 746 l 117 733 b 182 867 158 775 182 828 b 176 896 182 878 181 888 b 79 981 111 896 79 931 m 371 981 b 468 1063 371 1031 414 1063 b 571 947 542 1063 571 1013 b 444 703 571 829 493 746 l 408 733 b 474 867 450 775 474 828 b 468 896 474 878 472 888 b 371 981 403 896 371 931 "},"\"":{"ha":489,"x_min":0,"x_max":0,"o":"m 196 793 l 97 793 l 97 1021 l 196 1021 m 392 793 l 293 793 l 293 1021 l 392 1021 "},"'":{"ha":321,"x_min":0,"x_max":0,"o":"m 224 689 l 97 689 l 97 1063 l 224 1063 "},"%":{"ha":950,"x_min":0,"x_max":0,"o":"m 225 1026 b 406 785 353 1026 406 914 b 225 546 406 657 353 546 b 44 785 96 546 44 657 b 225 1026 44 914 96 1026 m 735 1021 l 850 1021 l 211 0 l 96 0 m 225 926 b 144 785 168 926 144 861 b 225 646 144 711 168 646 b 306 785 282 646 306 711 b 225 926 306 861 282 926 m 725 476 b 906 235 853 476 906 364 b 725 -4 906 107 853 -4 b 544 235 596 -4 544 107 b 725 476 544 364 596 476 m 725 376 b 644 235 668 376 644 311 b 725 96 644 161 668 96 b 806 235 782 96 806 161 b 725 376 806 311 782 376 "},"@":{"ha":1288,"x_min":0,"x_max":0,"o":"m 919 701 l 919 276 b 978 199 919 232 933 199 b 1092 421 1071 199 1092 351 b 650 833 1092 676 910 833 b 194 393 406 833 194 636 b 650 -49 194 149 406 -49 b 853 -8 719 -49 788 -36 l 856 -10 l 856 -150 b 650 -187 789 -174 718 -187 b 56 393 331 -187 56 72 b 650 972 56 713 331 972 b 1231 421 985 972 1231 754 b 978 60 1231 269 1167 60 b 817 138 907 60 850 90 b 622 58 769 94 704 58 b 310 390 453 58 310 207 b 650 719 310 571 467 719 b 801 674 706 719 754 707 l 917 704 m 650 582 b 447 390 543 582 447 494 b 622 196 447 283 529 196 b 781 250 689 196 742 221 l 781 550 b 650 582 742 574 699 582 "},"±":{"ha":628,"x_min":0,"x_max":0,"o":"m 369 324 l 258 324 l 258 458 l 83 458 l 83 569 l 258 569 l 258 703 l 369 703 l 369 569 l 546 569 l 546 458 l 369 458 m 546 222 l 546 111 l 83 111 l 83 222 "},"⁄":{"ha":339,"x_min":0,"x_max":0,"o":"m 415 1021 l 563 1021 l -76 0 l -224 0 "},"‰":{"ha":1211,"x_min":0,"x_max":0,"o":"m 986 476 b 1167 235 1114 476 1167 364 b 986 -4 1167 107 1114 -4 b 856 56 926 -4 885 19 b 725 -4 826 18 783 -4 b 544 235 596 -4 544 107 b 725 476 544 364 596 476 b 856 415 783 476 826 453 b 986 476 885 453 926 476 m 225 1026 b 406 785 353 1026 406 914 b 225 546 406 657 353 546 b 44 785 96 546 44 657 b 225 1026 44 914 96 1026 m 735 1021 l 850 1021 l 211 0 l 96 0 m 725 376 b 644 235 668 376 644 311 b 725 96 644 161 668 96 b 806 225 779 96 803 156 l 806 235 b 725 376 806 311 782 376 m 986 376 b 906 235 929 376 906 311 b 986 96 906 161 929 96 b 1067 235 1043 96 1067 161 b 986 376 1067 311 1043 376 m 225 926 b 144 785 168 926 144 861 b 225 646 144 711 168 646 b 306 785 282 646 306 711 b 225 926 306 861 282 926 "},"*":{"ha":550,"x_min":0,"x_max":0,"o":"m 235 1021 l 319 1021 l 319 872 l 457 924 l 485 836 l 342 794 l 432 678 l 360 624 l 274 746 b 190 624 247 707 214 660 l 118 678 l 207 794 l 65 836 l 93 922 l 235 872 "},"‹":{"ha":497,"x_min":0,"x_max":0,"o":"m 244 264 l 111 521 l 244 778 l 386 778 l 256 521 l 386 264 "},"«":{"ha":789,"x_min":0,"x_max":0,"o":"m 244 264 l 111 521 l 244 778 l 386 778 l 256 521 l 386 264 m 536 264 l 403 521 l 536 778 l 678 778 l 547 521 l 678 264 "},"»":{"ha":789,"x_min":0,"x_max":0,"o":"m 403 264 l 533 521 l 403 778 l 544 778 l 678 521 l 544 264 m 111 264 l 242 521 l 111 778 l 253 778 l 386 521 l 253 264 "},"›":{"ha":497,"x_min":0,"x_max":0,"o":"m 111 264 l 242 521 l 111 778 l 253 778 l 386 521 l 253 264 "},"÷":{"ha":629,"x_min":0,"x_max":0,"o":"m 546 521 l 546 424 l 83 424 l 83 521 m 232 689 b 314 765 232 731 268 765 b 400 689 363 765 400 731 b 314 614 400 647 363 614 b 232 689 268 614 232 647 m 232 254 b 314 331 232 296 268 331 b 400 254 363 331 400 296 b 314 179 400 213 363 179 b 232 254 268 179 232 213 "},"љ":{"ha":1464,"x_min":0,"x_max":0,"o":"m 179 778 l 821 778 l 821 497 l 1144 497 b 1394 250 1282 497 1394 388 b 1144 0 1394 111 1282 0 l 682 0 l 682 653 l 414 653 l 304 121 b 124 -4 288 39 199 -4 l 56 10 l 56 135 l 124 135 b 182 189 146 135 175 154 l 276 653 l 179 653 m 1144 135 b 1260 250 1208 135 1260 186 b 1144 363 1260 314 1208 363 l 821 363 l 821 135 "},"<":{"ha":786,"x_min":0,"x_max":0,"o":"m 83 417 l 83 528 l 685 806 l 685 694 l 203 472 l 685 250 l 685 139 "},">":{"ha":778,"x_min":0,"x_max":0,"o":"m 93 139 l 93 250 l 575 472 l 93 694 l 93 806 l 694 528 l 694 417 "},"^":{"ha":711,"x_min":0,"x_max":0,"o":"m 292 993 l 419 993 l 628 572 l 508 572 l 356 881 l 203 572 l 83 572 "},"{":{"ha":496,"x_min":0,"x_max":0,"o":"m 438 -162 b 201 61 310 -162 201 -65 l 201 296 b 83 418 201 358 150 418 l 83 508 b 201 631 150 508 201 567 l 201 864 b 438 1088 201 990 310 1088 l 438 1004 b 313 882 367 1004 313 946 l 313 649 b 219 463 313 572 276 506 b 313 278 276 421 313 353 l 313 43 b 438 -79 313 -21 367 -79 "},"}":{"ha":496,"x_min":0,"x_max":0,"o":"m 58 -79 b 183 43 129 -79 183 -21 l 183 278 b 276 463 183 353 219 421 b 183 649 219 506 183 572 l 183 882 b 58 1004 183 946 129 1004 l 58 1088 b 294 864 186 1088 294 990 l 294 631 b 413 508 294 567 346 508 l 413 418 b 294 296 346 418 294 358 l 294 61 b 58 -162 294 -65 186 -162 "},"‚":{"ha":358,"x_min":0,"x_max":0,"o":"m 79 93 b 176 175 79 143 122 175 b 279 60 250 175 279 125 b 153 -185 279 -58 201 -142 l 117 -154 b 182 -21 158 -112 182 -60 b 176 8 182 -10 181 0 b 79 93 111 8 79 43 "},"„":{"ha":650,"x_min":0,"x_max":0,"o":"m 79 93 b 176 175 79 143 122 175 b 279 60 250 175 279 125 b 153 -185 279 -58 201 -142 l 117 -154 b 182 -21 158 -112 182 -60 b 176 8 182 -10 181 0 b 79 93 111 8 79 43 m 371 93 b 468 175 371 143 414 175 b 571 60 542 175 571 125 b 444 -185 571 -58 493 -142 l 408 -154 b 474 -21 450 -112 474 -60 b 468 8 474 -10 472 0 b 371 93 403 8 371 43 "},"…":{"ha":1071,"x_min":0,"x_max":0,"o":"m 79 85 b 176 175 79 135 122 175 b 278 85 233 175 278 135 b 176 -4 278 35 233 -4 b 79 85 122 -4 79 35 m 436 85 b 533 175 436 135 479 175 b 635 85 590 175 635 135 b 533 -4 635 35 590 -4 b 436 85 479 -4 436 35 m 793 85 b 890 175 793 135 836 175 b 992 85 947 175 992 135 b 890 -4 992 35 947 -4 b 793 85 836 -4 793 35 "},"њ":{"ha":1418,"x_min":0,"x_max":0,"o":"m 636 367 l 208 367 l 208 0 l 69 0 l 69 778 l 208 778 l 208 494 l 636 494 l 636 778 l 775 778 l 775 497 l 1099 497 b 1349 250 1236 497 1349 388 b 1099 0 1349 111 1236 0 l 636 0 m 1099 135 b 1214 250 1163 135 1214 186 b 1099 363 1214 314 1163 363 l 775 363 l 775 135 "},"™":{"ha":1153,"x_min":0,"x_max":0,"o":"m 686 928 l 665 928 l 665 543 l 567 543 l 567 1021 l 760 1021 l 818 813 l 832 813 l 890 1021 l 1083 1021 l 1083 543 l 983 543 l 983 928 l 961 928 l 907 719 l 744 719 m 232 543 l 232 928 l 69 928 l 69 1021 l 493 1021 l 493 928 l 331 928 l 331 543 "},"ì":{"ha":333,"x_min":0,"x_max":0,"o":"m 236 0 l 97 0 l 97 778 l 236 778 m 31 1021 l 158 1021 l 247 863 l 157 863 "},"Ì":{"ha":333,"x_min":0,"x_max":0,"o":"m 236 0 l 97 0 l 97 1021 l 236 1021 m 58 1264 l 186 1264 l 275 1106 l 185 1106 "},"ò":{"ha":915,"x_min":0,"x_max":0,"o":"m 458 782 b 861 390 674 782 861 606 b 458 -4 861 172 674 -4 b 54 390 242 -4 54 172 b 458 782 54 606 242 782 m 458 643 b 193 390 317 643 193 529 b 458 135 193 249 317 135 b 722 390 600 135 722 249 b 458 643 722 529 600 643 m 315 1021 l 443 1021 l 532 863 l 442 863 "},"Ò":{"ha":1204,"x_min":0,"x_max":0,"o":"m 601 886 b 213 511 379 886 213 701 b 601 135 213 288 410 135 b 992 511 826 135 992 321 b 601 886 992 739 789 886 m 601 1025 b 1131 511 886 1025 1131 794 b 601 -4 1131 226 886 -4 b 74 511 318 -4 74 226 b 601 1025 74 794 318 1025 m 489 1264 l 617 1264 l 706 1106 l 615 1106 "},"Њ":{"ha":1728,"x_min":0,"x_max":0,"o":"m 806 671 l 806 1021 l 944 1021 l 944 681 l 1304 681 b 1644 340 1500 681 1644 535 b 1304 0 1644 144 1500 0 l 806 0 l 806 546 l 222 546 l 222 0 l 83 0 l 83 1021 l 222 1021 l 222 671 m 1304 128 b 1506 336 1419 128 1506 219 b 1304 544 1506 451 1418 544 l 944 544 l 944 128 "},"Љ":{"ha":1817,"x_min":0,"x_max":0,"o":"m 83 135 l 178 135 b 243 226 201 135 229 163 l 379 896 l 281 910 l 281 1021 l 1033 1021 l 1033 681 l 1393 681 b 1733 340 1589 681 1733 535 b 1393 0 1733 144 1589 0 l 894 0 l 894 896 l 518 896 l 383 226 b 178 -4 357 94 290 -4 l 83 10 m 1393 128 b 1594 336 1508 128 1594 219 b 1393 544 1594 451 1507 544 l 1033 544 l 1033 128 "},"°":{"ha":589,"x_min":0,"x_max":0,"o":"m 510 817 b 296 610 510 700 425 610 b 79 817 165 610 79 700 b 296 1026 79 933 165 1026 b 510 817 425 1026 510 933 m 413 817 b 296 929 413 879 367 929 b 176 817 224 929 176 879 b 296 707 176 754 224 707 b 413 817 367 707 413 754 "},"­":{"ha":629,"x_min":0,"x_max":0,"o":"m 546 528 l 546 417 l 83 417 l 83 528 "},"†":{"ha":494,"x_min":0,"x_max":0,"o":"m 479 778 l 479 667 l 303 667 l 303 -162 l 192 -162 l 192 667 l 17 667 l 17 778 l 192 778 l 192 1021 l 303 1021 l 303 778 "},"®":{"ha":1157,"x_min":0,"x_max":0,"o":"m 54 511 b 569 1026 54 796 285 1026 b 1085 511 854 1026 1085 796 b 569 -4 1085 226 854 -4 b 54 511 285 -4 54 226 m 164 511 b 569 106 164 286 344 106 b 975 511 794 106 975 286 b 569 917 975 736 794 917 b 164 511 344 917 164 736 m 719 229 b 621 299 678 229 644 254 l 583 371 b 551 403 574 390 564 401 l 457 403 l 457 231 l 357 231 l 357 793 l 608 793 b 803 599 717 793 803 706 b 668 413 803 514 743 440 l 692 358 b 724 329 700 340 713 329 l 776 329 l 782 238 m 457 697 l 457 500 l 585 500 b 701 599 649 500 701 535 b 585 697 701 663 649 697 "},"©":{"ha":1157,"x_min":0,"x_max":0,"o":"m 54 511 b 569 1026 54 796 285 1026 b 1085 511 854 1026 1085 796 b 569 -4 1085 226 854 -4 b 54 511 285 -4 54 226 m 164 511 b 569 106 164 286 344 106 b 975 511 794 106 975 286 b 569 917 975 736 794 917 b 164 511 344 917 164 736 m 569 694 b 383 513 467 694 383 622 b 569 328 383 400 467 328 b 736 401 676 328 731 397 l 799 322 b 569 229 793 317 711 229 b 283 513 413 229 283 346 b 569 793 283 676 413 793 b 776 736 696 793 771 740 l 776 632 l 693 632 l 690 669 b 569 694 664 681 622 694 "},"¢":{"ha":807,"x_min":0,"x_max":0,"o":"m 375 867 l 486 867 l 486 779 b 726 701 633 767 722 704 l 726 557 l 611 557 l 606 610 b 486 640 578 621 536 635 l 486 138 b 683 228 625 153 683 231 l 771 118 b 486 -1 764 111 665 13 l 486 -93 l 375 -93 l 375 0 b 40 390 188 28 40 181 b 375 776 40 597 188 749 m 179 390 b 375 142 179 258 263 167 l 375 636 b 179 390 263 611 179 519 "},"ї":{"ha":333,"x_min":0,"x_max":0,"o":"m 236 0 l 97 0 l 97 778 l 236 778 m -31 950 b 50 1025 -31 993 4 1025 b 132 950 96 1025 132 993 b 50 876 132 907 96 876 b -31 950 4 876 -31 907 m 201 950 b 282 1025 201 993 236 1025 b 364 950 328 1025 364 993 b 282 876 364 907 328 876 b 201 950 236 876 201 907 "},"і":{"ha":333,"x_min":0,"x_max":0,"o":"m 236 0 l 97 0 l 97 778 l 236 778 m 79 974 b 167 1054 79 1018 118 1054 b 256 974 215 1054 256 1018 b 167 894 256 929 215 894 b 79 974 118 894 79 929 "},"Ґ":{"ha":917,"x_min":0,"x_max":0,"o":"m 833 1201 l 833 888 l 222 888 l 222 0 l 83 0 l 83 1021 l 708 1021 l 722 1201 "},"¨":{"ha":888,"x_min":0,"x_max":0,"o":"m 217 950 b 297 1025 217 993 251 1025 b 379 950 343 1025 379 993 b 297 876 379 907 343 876 b 217 950 251 876 217 907 m 508 950 b 589 1025 508 993 543 1025 b 671 950 635 1025 671 993 b 589 876 671 907 635 876 b 508 950 543 876 508 907 "},"ë":{"ha":882,"x_min":0,"x_max":0,"o":"m 232 950 b 313 1025 232 993 267 1025 b 394 950 358 1025 394 993 b 313 876 394 907 358 876 b 232 950 267 876 232 907 m 524 950 b 604 1025 524 993 558 1025 b 686 950 650 1025 686 993 b 604 876 686 907 650 876 b 524 950 558 876 524 907 m 458 131 b 704 228 633 131 704 231 l 792 118 b 458 -4 785 111 669 -4 b 54 390 242 -4 54 172 b 458 782 54 606 242 782 b 828 504 654 782 828 660 b 664 340 828 414 754 340 l 197 340 b 458 131 222 221 333 131 m 458 647 b 207 469 344 647 243 571 l 664 469 b 696 504 682 469 696 486 b 458 647 696 569 600 647 "},"Þ":{"ha":839,"x_min":0,"x_max":0,"o":"m 222 0 l 83 0 l 83 1021 l 222 1021 l 222 918 l 379 918 b 769 531 600 918 769 747 b 379 144 769 318 590 144 l 222 144 m 379 274 b 633 531 519 274 633 390 b 379 789 633 671 519 789 l 222 789 l 222 274 "},"þ":{"ha":760,"x_min":0,"x_max":0,"o":"m 69 1088 l 208 1088 l 208 721 b 357 782 265 774 303 782 b 706 389 576 782 706 606 b 357 -4 706 172 576 -4 b 208 44 303 -4 265 8 l 208 -301 l 69 -301 m 357 643 b 208 592 297 642 257 631 l 208 175 b 357 135 257 140 296 135 b 567 389 497 135 567 247 b 357 643 567 528 499 643 "},"×":{"ha":629,"x_min":0,"x_max":0,"o":"m 117 600 l 185 668 l 314 539 l 444 668 l 513 600 l 383 471 l 513 343 l 444 274 l 314 403 l 185 274 l 117 343 l 246 471 "},"´":{"ha":314,"x_min":0,"x_max":0,"o":"m 139 863 l 49 863 l 138 1021 l 265 1021 "},"ý":{"ha":826,"x_min":0,"x_max":0,"o":"m 46 778 l 185 778 l 376 139 l 450 139 l 642 778 l 781 778 l 496 -176 b 315 -301 472 -257 390 -301 l 233 -287 l 233 -162 l 315 -162 b 375 -110 338 -162 368 -144 l 407 0 l 278 0 m 457 863 l 367 863 l 456 1021 l 583 1021 "},"ú":{"ha":872,"x_min":0,"x_max":0,"o":"m 208 264 b 383 128 208 174 269 128 b 664 263 483 128 565 181 l 664 778 l 803 778 l 803 0 l 692 0 l 667 126 b 383 -4 576 57 476 -4 b 69 264 192 -4 69 89 l 69 778 l 208 778 m 474 863 l 383 863 l 472 1021 l 600 1021 "},"ù":{"ha":872,"x_min":0,"x_max":0,"o":"m 208 264 b 383 128 208 174 269 128 b 664 263 483 128 565 181 l 664 778 l 803 778 l 803 0 l 692 0 l 667 126 b 383 -4 576 57 476 -4 b 69 264 192 -4 69 89 l 69 778 l 208 778 m 288 1021 l 415 1021 l 504 863 l 414 863 "},"ü":{"ha":872,"x_min":0,"x_max":0,"o":"m 208 264 b 383 128 208 174 269 128 b 664 263 483 128 565 181 l 664 778 l 803 778 l 803 0 l 692 0 l 667 126 b 383 -4 576 57 476 -4 b 69 264 192 -4 69 89 l 69 778 l 208 778 m 208 950 b 289 1025 208 993 243 1025 b 371 950 335 1025 371 993 b 289 876 371 907 335 876 b 208 950 243 876 208 907 m 500 950 b 581 1025 500 993 535 1025 b 663 950 626 1025 663 993 b 581 876 663 907 626 876 b 500 950 535 876 500 907 "},"ÿ":{"ha":826,"x_min":0,"x_max":0,"o":"m 46 778 l 185 778 l 376 139 l 450 139 l 642 778 l 781 778 l 496 -176 b 315 -301 472 -257 390 -301 l 233 -287 l 233 -162 l 315 -162 b 375 -110 338 -162 368 -144 l 407 0 l 278 0 m 185 950 b 265 1025 185 993 219 1025 b 347 950 311 1025 347 993 b 265 876 347 907 311 876 b 185 950 219 876 185 907 m 476 950 b 557 1025 476 993 511 1025 b 639 950 603 1025 639 993 b 557 876 639 907 603 876 b 476 950 511 876 476 907 "},"ö":{"ha":915,"x_min":0,"x_max":0,"o":"m 458 782 b 861 390 674 782 861 606 b 458 -4 861 172 674 -4 b 54 390 242 -4 54 172 b 458 782 54 606 242 782 m 458 643 b 193 390 317 643 193 529 b 458 135 193 249 317 135 b 722 390 600 135 722 249 b 458 643 722 529 600 643 m 229 950 b 310 1025 229 993 264 1025 b 392 950 356 1025 392 993 b 310 876 392 907 356 876 b 229 950 264 876 229 907 m 521 950 b 601 1025 521 993 556 1025 b 683 950 647 1025 683 993 b 601 876 683 907 647 876 b 521 950 556 876 521 907 "},"í":{"ha":333,"x_min":0,"x_max":0,"o":"m 236 0 l 97 0 l 97 778 l 236 778 m 176 863 l 86 863 l 175 1021 l 303 1021 "},"ä":{"ha":844,"x_min":0,"x_max":0,"o":"m 319 -4 b 69 247 182 -4 69 108 b 319 497 69 385 182 497 l 633 497 b 444 650 618 608 546 650 b 257 613 360 650 313 642 l 249 557 l 138 557 l 138 696 b 444 782 238 746 308 782 b 775 465 636 782 775 682 l 775 0 l 664 0 l 642 115 b 319 -4 565 54 460 -4 m 319 131 b 636 256 471 131 561 183 l 636 363 l 319 363 b 204 247 256 363 204 311 b 319 131 204 183 256 131 m 222 950 b 303 1025 222 993 257 1025 b 385 950 349 1025 385 993 b 303 876 385 907 349 876 b 222 950 257 876 222 907 m 514 950 b 594 1025 514 993 549 1025 b 676 950 640 1025 676 993 b 594 876 676 907 640 876 b 514 950 549 876 514 907 "},"é":{"ha":881,"x_min":0,"x_max":0,"o":"m 478 863 l 388 863 l 476 1021 l 604 1021 m 458 131 b 704 228 633 131 704 231 l 792 118 b 458 -4 785 111 669 -4 b 54 390 242 -4 54 172 b 458 782 54 606 242 782 b 828 504 654 782 828 660 b 664 340 828 414 754 340 l 197 340 b 458 131 222 221 333 131 m 458 647 b 207 469 344 647 243 571 l 664 469 b 696 504 682 469 696 486 b 458 647 696 569 600 647 "},"è":{"ha":882,"x_min":0,"x_max":0,"o":"m 303 1021 l 431 1021 l 519 863 l 429 863 m 458 131 b 704 228 633 131 704 231 l 792 118 b 458 -4 785 111 669 -4 b 54 390 242 -4 54 172 b 458 782 54 606 242 782 b 828 504 654 782 828 660 b 664 340 828 414 754 340 l 197 340 b 458 131 222 221 333 131 m 458 647 b 207 469 344 647 243 571 l 664 469 b 696 504 682 469 696 486 b 458 647 696 569 600 647 "},"ˇ":{"ha":492,"x_min":0,"x_max":0,"o":"m 69 1021 l 168 1021 l 231 942 l 261 942 l 324 1021 l 422 1021 l 297 863 l 194 863 "},"ˆ":{"ha":492,"x_min":0,"x_max":0,"o":"m 194 1021 l 297 1021 l 422 863 l 324 863 l 261 942 l 231 942 l 168 863 l 69 863 "},"à":{"ha":844,"x_min":0,"x_max":0,"o":"m 319 -4 b 69 247 182 -4 69 108 b 319 497 69 385 182 497 l 633 497 b 444 650 618 608 546 650 b 257 613 360 650 313 642 l 249 557 l 138 557 l 138 696 b 444 782 238 746 308 782 b 775 465 636 782 775 682 l 775 0 l 664 0 l 642 115 b 319 -4 565 54 460 -4 m 319 131 b 636 256 471 131 561 183 l 636 363 l 319 363 b 204 247 256 363 204 311 b 319 131 204 183 256 131 m 314 1021 l 442 1021 l 531 863 l 440 863 "},"á":{"ha":844,"x_min":0,"x_max":0,"o":"m 319 -4 b 69 247 182 -4 69 108 b 319 497 69 385 182 497 l 633 497 b 444 650 618 608 546 650 b 257 613 360 650 313 642 l 249 557 l 138 557 l 138 696 b 444 782 238 746 308 782 b 775 465 636 782 775 682 l 775 0 l 664 0 l 642 115 b 319 -4 565 54 460 -4 m 319 131 b 636 256 471 131 561 183 l 636 363 l 319 363 b 204 247 256 363 204 311 b 319 131 204 183 256 131 m 446 863 l 356 863 l 444 1021 l 572 1021 "},"â":{"ha":844,"x_min":0,"x_max":0,"o":"m 319 -4 b 69 247 182 -4 69 108 b 319 497 69 385 182 497 l 633 497 b 444 650 618 608 546 650 b 257 613 360 650 313 642 l 249 557 l 138 557 l 138 696 b 444 782 238 746 308 782 b 775 465 636 782 775 682 l 775 0 l 664 0 l 642 115 b 319 -4 565 54 460 -4 m 319 131 b 636 256 471 131 561 183 l 636 363 l 319 363 b 204 247 256 363 204 311 b 319 131 204 183 256 131 m 399 1021 l 501 1021 l 626 863 l 528 863 l 465 942 l 435 942 l 372 863 l 274 863 "},"û":{"ha":872,"x_min":0,"x_max":0,"o":"m 208 264 b 383 128 208 174 269 128 b 664 263 483 128 565 181 l 664 778 l 803 778 l 803 0 l 692 0 l 667 126 b 383 -4 576 57 476 -4 b 69 264 192 -4 69 89 l 69 778 l 208 778 m 385 1021 l 488 1021 l 613 863 l 514 863 l 451 942 l 421 942 l 358 863 l 260 863 "},"ô":{"ha":915,"x_min":0,"x_max":0,"o":"m 458 782 b 861 390 674 782 861 606 b 458 -4 861 172 674 -4 b 54 390 242 -4 54 172 b 458 782 54 606 242 782 m 458 643 b 193 390 317 643 193 529 b 458 135 193 249 317 135 b 722 390 600 135 722 249 b 458 643 722 529 600 643 m 406 1021 l 508 1021 l 633 863 l 535 863 l 472 942 l 442 942 l 379 863 l 281 863 "},"ó":{"ha":915,"x_min":0,"x_max":0,"o":"m 458 782 b 861 390 674 782 861 606 b 458 -4 861 172 674 -4 b 54 390 242 -4 54 172 b 458 782 54 606 242 782 m 458 643 b 193 390 317 643 193 529 b 458 135 193 249 317 135 b 722 390 600 135 722 249 b 458 643 722 529 600 643 m 478 863 l 388 863 l 476 1021 l 604 1021 "},"ï":{"ha":333,"x_min":0,"x_max":0,"o":"m 236 0 l 97 0 l 97 778 l 236 778 m -61 950 b 19 1025 -61 993 -26 1025 b 101 950 65 1025 101 993 b 19 876 101 907 65 876 b -61 950 -26 876 -61 907 m 231 950 b 311 1025 231 993 265 1025 b 393 950 357 1025 393 993 b 311 876 393 907 357 876 b 231 950 265 876 231 907 "},"ê":{"ha":882,"x_min":0,"x_max":0,"o":"m 415 1021 l 518 1021 l 643 863 l 544 863 l 482 942 l 451 942 l 389 863 l 290 863 m 458 131 b 704 228 633 131 704 231 l 792 118 b 458 -4 785 111 669 -4 b 54 390 242 -4 54 172 b 458 782 54 606 242 782 b 828 504 654 782 828 660 b 664 340 828 414 754 340 l 197 340 b 458 131 222 221 333 131 m 458 647 b 207 469 344 647 243 571 l 664 469 b 696 504 682 469 696 486 b 458 647 696 569 600 647 "},"¿":{"ha":728,"x_min":0,"x_max":0,"o":"m 454 636 b 357 546 454 586 411 546 b 256 636 300 546 256 586 b 357 725 256 686 300 725 b 454 636 411 725 454 686 m 294 429 l 419 429 l 419 351 b 283 135 419 257 364 172 b 167 -31 197 94 167 50 b 357 -167 167 -129 265 -167 b 599 -18 489 -167 560 -61 l 703 -110 b 357 -306 639 -185 529 -306 b 28 -31 188 -306 28 -208 b 224 261 28 113 96 200 b 294 351 271 283 294 324 "},"¡":{"ha":358,"x_min":0,"x_max":0,"o":"m 82 635 b 179 724 82 685 125 724 b 281 635 236 724 281 685 b 179 544 281 585 236 544 b 82 635 125 544 82 585 m 253 -301 l 125 -301 l 125 428 l 253 428 "},"¥":{"ha":953,"x_min":0,"x_max":0,"o":"m 833 310 l 833 213 l 546 213 l 546 0 l 407 0 l 407 213 l 119 213 l 119 310 l 407 310 l 407 393 l 119 393 l 119 490 l 288 490 l 33 1021 l 172 1021 l 426 490 l 526 490 l 781 1021 l 919 1021 l 664 490 l 833 490 l 833 393 l 546 393 l 546 310 "},"˚":{"ha":492,"x_min":0,"x_max":0,"o":"m 133 954 b 246 1067 133 1015 185 1067 b 358 954 307 1067 358 1015 b 246 842 358 893 307 842 b 133 954 185 842 133 893 m 199 954 b 246 907 199 928 219 907 b 293 954 272 907 293 928 b 246 1001 293 981 272 1001 b 199 954 219 1001 199 981 "},"å":{"ha":844,"x_min":0,"x_max":0,"o":"m 319 -4 b 69 247 182 -4 69 108 b 319 497 69 385 182 497 l 633 497 b 444 650 618 608 546 650 b 257 613 360 650 313 642 l 249 557 l 138 557 l 138 696 b 444 782 238 746 308 782 b 775 465 636 782 775 682 l 775 0 l 664 0 l 642 115 b 319 -4 565 54 460 -4 m 319 131 b 636 256 471 131 561 183 l 636 363 l 319 363 b 204 247 256 363 204 311 b 319 131 204 183 256 131 m 338 954 b 450 1067 338 1015 389 1067 b 563 954 511 1067 563 1015 b 450 842 563 893 511 842 b 338 954 389 842 338 893 m 403 954 b 450 907 403 928 424 907 b 497 954 476 907 497 928 b 450 1001 497 981 476 1001 b 403 954 424 1001 403 981 "},"¤":{"ha":878,"x_min":0,"x_max":0,"o":"m 88 431 b 158 642 88 510 114 582 l 50 750 l 119 819 l 228 711 b 439 782 286 756 360 782 b 650 711 518 782 590 756 l 758 819 l 828 750 l 719 642 b 790 431 764 582 790 510 b 719 219 790 351 764 278 l 828 111 l 758 42 l 650 150 b 439 79 590 106 518 79 b 226 149 358 79 286 104 l 119 42 l 50 111 l 157 218 b 88 431 113 278 88 350 m 185 431 b 439 176 185 290 299 176 b 693 431 579 176 693 290 b 439 685 693 571 579 685 b 185 431 299 685 185 571 "},"¦":{"ha":375,"x_min":0,"x_max":0,"o":"m 139 1088 l 236 1088 l 236 601 l 139 601 m 139 324 l 236 324 l 236 -162 l 139 -162 "},"ı":{"ha":333,"x_min":0,"x_max":0,"o":"m 236 0 l 97 0 l 97 778 l 236 778 "},"î":{"ha":333,"x_min":0,"x_max":0,"o":"m 236 0 l 97 0 l 97 778 l 236 778 m 115 1021 l 218 1021 l 343 863 l 244 863 l 182 942 l 151 942 l 89 863 l -10 863 "},"š":{"ha":846,"x_min":0,"x_max":0,"o":"m 424 -4 b 56 118 213 -4 63 113 l 143 228 b 424 132 143 231 249 132 b 646 240 519 132 646 163 b 424 333 646 292 615 333 b 85 557 193 333 85 415 b 424 782 85 682 228 782 b 733 701 600 782 729 704 l 733 564 l 626 564 l 608 610 b 424 646 567 626 504 646 b 224 557 314 646 224 611 b 424 469 224 508 265 469 b 785 240 628 469 785 401 b 424 -4 785 93 631 -4 m 246 1021 l 344 1021 l 407 942 l 438 942 l 500 1021 l 599 1021 l 474 863 l 371 863 "},"ž":{"ha":817,"x_min":0,"x_max":0,"o":"m 69 208 l 608 626 l 608 653 l 69 653 l 69 778 l 747 778 l 747 575 l 208 158 l 208 139 l 747 139 l 747 0 l 69 0 m 232 1021 l 331 1021 l 393 942 l 424 942 l 486 1021 l 585 1021 l 460 863 l 357 863 "},"¸":{"ha":404,"x_min":0,"x_max":0,"o":"m 85 -246 b 211 -192 118 -244 211 -240 b 164 -151 211 -165 196 -151 l 99 -151 l 136 15 l 233 15 l 203 -69 b 335 -165 246 -69 335 -89 b 104 -301 335 -285 208 -301 l 69 -301 "},"ç":{"ha":839,"x_min":0,"x_max":0,"o":"m 349 -246 b 475 -192 382 -244 475 -240 b 428 -151 475 -165 460 -151 l 363 -151 l 400 15 l 497 15 l 467 -69 b 599 -165 510 -69 599 -89 b 368 -301 599 -285 472 -301 l 333 -301 m 451 643 b 193 390 310 643 193 543 b 451 135 193 235 310 135 b 697 228 626 135 697 231 l 785 118 b 451 -4 778 111 663 -4 b 54 390 235 -4 54 158 b 451 782 54 619 235 782 b 740 701 628 782 736 704 l 740 557 l 625 557 l 619 610 b 451 643 583 625 525 643 "},"Ѕ":{"ha":1022,"x_min":0,"x_max":0,"o":"m 508 888 b 239 746 369 888 239 824 b 522 613 239 639 369 613 b 953 307 733 613 953 553 b 500 -4 953 115 717 -4 b 46 157 308 -4 160 57 l 128 278 b 499 135 218 189 342 135 b 799 307 685 135 799 222 b 529 469 799 431 685 469 b 85 746 324 469 85 515 b 508 1026 85 944 338 1026 b 894 926 631 1026 783 996 l 894 731 l 772 731 l 756 842 b 508 888 683 875 590 888 "},"ѕ":{"ha":846,"x_min":0,"x_max":0,"o":"m 396 -4 b 28 118 185 -4 35 113 l 115 228 b 396 132 115 231 221 132 b 618 240 492 132 618 163 b 396 333 618 292 588 333 b 57 557 165 333 57 415 b 396 782 57 682 200 782 b 706 701 572 782 701 704 l 706 564 l 599 564 l 581 610 b 396 646 539 626 476 646 b 196 557 272 646 196 593 b 396 469 196 532 196 469 b 757 240 558 469 757 429 b 396 -4 757 93 603 -4 "},"ј":{"ha":458,"x_min":0,"x_max":0,"o":"m 50 -169 l 153 -169 b 250 -47 197 -169 250 -131 l 250 778 l 389 778 l 389 -47 b 153 -301 389 -194 317 -301 l 50 -287 m 232 974 b 319 1054 232 1018 271 1054 b 408 974 368 1054 408 1018 b 319 894 408 929 368 894 b 232 974 271 894 232 929 "},"Ј":{"ha":1028,"x_min":0,"x_max":0,"o":"m 224 372 b 515 135 224 232 338 135 b 807 456 693 135 807 232 l 807 1021 l 946 1021 l 946 456 b 515 -4 946 171 785 -4 b 83 372 247 -4 83 171 l 83 511 l 278 511 l 278 400 "},"І":{"ha":333,"x_min":0,"x_max":0,"o":"m 236 0 l 97 0 l 97 1021 l 236 1021 "},"Є":{"ha":1032,"x_min":0,"x_max":0,"o":"m 782 588 l 782 463 l 203 463 b 588 135 228 265 410 135 b 889 275 713 135 819 192 l 988 176 b 588 -4 889 67 744 -4 b 60 511 304 -4 60 226 b 588 1026 60 796 304 1026 b 935 926 710 1026 824 996 l 935 731 l 813 731 l 796 847 b 588 888 738 876 667 888 b 207 588 419 888 246 768 "},"є":{"ha":807,"x_min":0,"x_max":0,"o":"m 438 782 b 726 701 614 782 722 704 l 726 564 l 625 564 l 606 610 b 438 643 569 625 514 643 b 192 469 322 643 224 576 l 604 469 l 604 340 l 183 340 b 438 135 206 214 313 135 b 683 228 613 135 683 231 l 771 118 b 438 -4 764 111 649 -4 b 40 390 221 -4 40 158 b 438 782 40 619 221 782 "},"ґ":{"ha":706,"x_min":0,"x_max":0,"o":"m 636 931 l 636 649 l 208 649 l 208 0 l 69 0 l 69 778 l 504 778 l 518 931 "},"ќ":{"ha":879,"x_min":0,"x_max":0,"o":"m 208 340 l 208 0 l 69 0 l 69 778 l 208 778 l 208 469 l 446 469 b 501 531 465 472 489 497 l 549 653 b 729 778 585 733 654 778 l 783 764 l 783 639 l 729 639 b 671 585 707 639 685 619 l 624 463 b 569 406 615 440 582 413 b 621 354 582 401 611 374 l 697 189 b 756 135 713 154 733 135 l 810 135 l 810 10 l 756 -4 b 575 121 679 -4 613 40 l 499 286 b 443 340 483 318 465 338 m 432 863 l 342 863 l 431 1021 l 558 1021 "},"ѓ":{"ha":706,"x_min":0,"x_max":0,"o":"m 69 0 l 69 778 l 636 778 l 636 649 l 208 649 l 208 0 m 378 863 l 288 863 l 376 1021 l 504 1021 "},"µ":{"ha":900,"x_min":0,"x_max":0,"o":"m 222 264 b 397 128 222 174 283 128 b 678 263 497 128 579 181 l 678 778 l 817 778 l 817 0 l 706 0 l 681 126 b 397 -4 590 57 490 -4 b 222 31 329 -4 269 7 l 222 -306 l 83 -306 l 83 778 l 222 778 "},"Ї":{"ha":333,"x_min":0,"x_max":0,"o":"m -51 1182 b 36 1263 -51 1226 -12 1263 b 125 1182 85 1263 125 1226 b 36 1103 125 1138 85 1103 b -51 1182 -12 1103 -51 1138 m 213 1182 b 300 1263 213 1226 251 1263 b 389 1182 349 1263 389 1226 b 300 1103 389 1138 349 1103 b 213 1182 250 1103 214 1138 m 236 0 l 97 0 l 97 1021 l 236 1021 "},"¶":{"ha":875,"x_min":0,"x_max":0,"o":"m 536 896 l 425 896 l 425 -246 l 286 -246 l 286 604 b 69 811 156 604 69 694 b 286 1021 69 928 156 1021 l 806 1021 l 806 896 l 675 896 l 675 -246 l 536 -246 "},"Ѓ":{"ha":917,"x_min":0,"x_max":0,"o":"m 833 1021 l 833 889 l 222 889 l 222 0 l 83 0 l 83 1021 m 482 1103 l 392 1103 l 481 1261 l 608 1261 "},"É":{"ha":944,"x_min":0,"x_max":0,"o":"m 861 132 l 861 0 l 83 0 l 83 1021 l 819 1021 l 819 889 l 222 889 l 222 594 l 708 594 l 708 463 l 222 463 l 222 132 m 468 1106 l 378 1106 l 467 1264 l 594 1264 "},"Ë":{"ha":944,"x_min":0,"x_max":0,"o":"m 243 1193 b 324 1268 243 1236 278 1268 b 406 1193 369 1268 406 1236 b 324 1119 406 1150 369 1119 b 243 1193 278 1119 243 1150 m 535 1193 b 615 1268 535 1236 569 1268 b 697 1193 661 1268 697 1236 b 615 1119 697 1150 661 1119 b 535 1193 569 1119 535 1150 m 861 118 l 861 0 l 83 0 l 83 1021 l 819 1021 l 819 910 l 222 910 l 222 581 l 708 581 l 708 469 l 222 469 l 222 118 "},"Á":{"ha":1111,"x_min":0,"x_max":0,"o":"m 222 0 l 83 0 l 389 1021 l 722 1021 l 1028 0 l 889 0 l 806 279 l 306 279 m 343 404 l 768 404 l 621 896 l 490 896 m 565 1106 l 475 1106 l 564 1264 l 692 1264 "},"Í":{"ha":333,"x_min":0,"x_max":0,"o":"m 236 0 l 97 0 l 97 1021 l 236 1021 m 149 1106 l 58 1106 l 147 1264 l 275 1264 "},"Ú":{"ha":1072,"x_min":0,"x_max":0,"o":"m 222 460 b 535 135 222 250 350 135 b 850 460 721 135 850 250 l 850 1021 l 989 1021 l 989 460 b 536 -4 989 143 767 -4 b 83 460 306 -4 83 143 l 83 1021 l 222 1021 m 571 1106 l 481 1106 l 569 1264 l 697 1264 "},"Ý":{"ha":953,"x_min":0,"x_max":0,"o":"m 781 1021 l 919 1021 l 618 393 l 546 393 l 546 0 l 407 0 l 407 393 l 335 393 l 33 1021 l 172 1021 l 407 532 l 546 532 m 500 1106 l 410 1106 l 499 1264 l 626 1264 "},"Ÿ":{"ha":953,"x_min":0,"x_max":0,"o":"m 781 1021 l 919 1021 l 618 393 l 546 393 l 546 0 l 407 0 l 407 393 l 335 393 l 33 1021 l 172 1021 l 407 532 l 546 532 m 247 1193 b 328 1268 247 1236 282 1268 b 410 1193 374 1268 410 1236 b 328 1119 410 1150 374 1119 b 247 1193 282 1119 247 1150 m 539 1193 b 619 1268 539 1236 574 1268 b 701 1193 665 1268 701 1236 b 619 1119 701 1150 665 1119 b 539 1193 574 1119 539 1150 "},"Ä":{"ha":1111,"x_min":0,"x_max":0,"o":"m 222 0 l 83 0 l 389 1021 l 722 1021 l 1028 0 l 889 0 l 806 279 l 306 279 m 343 404 l 768 404 l 621 896 l 490 896 m 326 1193 b 407 1268 326 1236 361 1268 b 489 1193 453 1268 489 1236 b 407 1119 489 1150 453 1119 b 326 1193 361 1119 326 1150 m 618 1193 b 699 1268 618 1236 653 1268 b 781 1193 744 1268 781 1236 b 699 1119 781 1150 744 1119 b 618 1193 653 1119 618 1150 "},"Ï":{"ha":333,"x_min":0,"x_max":0,"o":"m 236 0 l 97 0 l 97 1021 l 236 1021 m -61 1193 b 19 1268 -61 1236 -26 1268 b 101 1193 65 1268 101 1236 b 19 1119 101 1150 65 1119 b -61 1193 -26 1119 -61 1150 m 231 1193 b 311 1268 231 1236 265 1268 b 393 1193 357 1268 393 1236 b 311 1119 393 1150 357 1119 b 231 1193 265 1119 231 1150 "},"Ö":{"ha":1204,"x_min":0,"x_max":0,"o":"m 601 886 b 213 511 379 886 213 701 b 601 135 213 288 410 135 b 992 511 826 135 992 321 b 601 886 992 739 789 886 m 601 1025 b 1131 511 886 1025 1131 794 b 601 -4 1131 226 886 -4 b 74 511 318 -4 74 226 b 601 1025 74 794 318 1025 m 374 1193 b 454 1268 374 1236 408 1268 b 536 1193 500 1268 536 1236 b 454 1119 536 1150 500 1119 b 374 1193 408 1119 374 1150 m 665 1193 b 746 1268 665 1236 700 1268 b 828 1193 792 1268 828 1236 b 746 1119 828 1150 792 1119 b 665 1193 700 1119 665 1150 "},"Ü":{"ha":1072,"x_min":0,"x_max":0,"o":"m 222 460 b 535 135 222 250 350 135 b 850 460 721 135 850 250 l 850 1021 l 989 1021 l 989 460 b 536 -4 989 143 767 -4 b 83 460 306 -4 83 143 l 83 1021 l 222 1021 m 307 1193 b 388 1268 307 1236 342 1268 b 469 1193 433 1268 469 1236 b 388 1119 469 1150 433 1119 b 307 1193 342 1119 307 1150 m 599 1193 b 679 1268 599 1236 633 1268 b 761 1193 725 1268 761 1236 b 679 1119 761 1150 725 1119 b 599 1193 633 1119 599 1150 "},"Â":{"ha":1111,"x_min":0,"x_max":0,"o":"m 222 0 l 83 0 l 389 1021 l 722 1021 l 1028 0 l 889 0 l 806 279 l 306 279 m 343 404 l 768 404 l 621 896 l 490 896 m 504 1264 l 607 1264 l 732 1106 l 633 1106 l 571 1185 l 540 1185 l 478 1106 l 379 1106 "},"À":{"ha":1111,"x_min":0,"x_max":0,"o":"m 222 0 l 83 0 l 389 1021 l 722 1021 l 1028 0 l 889 0 l 806 279 l 306 279 m 343 404 l 768 404 l 621 896 l 490 896 m 433 1264 l 561 1264 l 650 1106 l 560 1106 "},"Å":{"ha":1111,"x_min":0,"x_max":0,"o":"m 222 0 l 83 0 l 389 1021 l 722 1021 l 1028 0 l 889 0 l 806 279 l 306 279 m 343 404 l 768 404 l 621 896 l 490 896 m 443 1197 b 556 1310 443 1258 494 1310 b 668 1197 617 1310 668 1258 b 556 1085 668 1136 617 1085 b 443 1197 494 1085 443 1136 m 508 1197 b 556 1150 508 1171 529 1150 b 603 1197 582 1150 603 1171 b 556 1244 603 1224 582 1244 b 508 1197 529 1244 508 1224 "},"È":{"ha":944,"x_min":0,"x_max":0,"o":"m 861 132 l 861 0 l 83 0 l 83 1021 l 819 1021 l 819 889 l 222 889 l 222 594 l 708 594 l 708 463 l 222 463 l 222 132 m 336 1264 l 464 1264 l 553 1106 l 463 1106 "},"Ç":{"ha":1075,"x_min":0,"x_max":0,"o":"m 810 847 b 601 888 750 876 679 888 b 213 511 410 888 213 735 b 601 135 213 288 410 135 b 903 275 726 135 833 192 l 1001 176 b 601 -4 903 67 758 -4 b 74 511 318 -4 74 226 b 601 1026 74 796 318 1026 b 949 926 724 1026 838 996 l 949 758 l 826 758 m 488 -246 b 614 -192 521 -244 614 -240 b 567 -151 614 -165 599 -151 l 501 -151 l 539 15 l 636 15 l 606 -69 b 738 -165 649 -69 738 -89 b 507 -301 738 -285 611 -301 l 472 -301 "},"Ê":{"ha":944,"x_min":0,"x_max":0,"o":"m 861 132 l 861 0 l 83 0 l 83 1021 l 819 1021 l 819 889 l 222 889 l 222 594 l 708 594 l 708 463 l 222 463 l 222 132 m 421 1264 l 524 1264 l 649 1106 l 550 1106 l 488 1185 l 457 1185 l 394 1106 l 296 1106 "},"Î":{"ha":333,"x_min":0,"x_max":0,"o":"m 236 0 l 97 0 l 97 1021 l 236 1021 m 115 1264 l 218 1264 l 343 1106 l 244 1106 l 182 1185 l 151 1185 l 89 1106 l -10 1106 "},"Ô":{"ha":1204,"x_min":0,"x_max":0,"o":"m 550 1264 l 653 1264 l 778 1106 l 679 1106 l 617 1185 l 586 1185 l 524 1106 l 425 1106 m 601 886 b 213 511 379 886 213 701 b 601 135 213 288 410 135 b 992 511 826 135 992 321 b 601 886 992 739 789 886 m 601 1025 b 1131 511 886 1025 1131 794 b 601 -4 1131 226 886 -4 b 74 511 318 -4 74 226 b 601 1025 74 794 318 1025 "},"Ó":{"ha":1204,"x_min":0,"x_max":0,"o":"m 603 886 b 213 511 415 886 213 739 b 603 135 213 321 378 135 b 992 511 794 135 992 288 b 603 886 992 701 825 886 m 603 1025 b 1131 511 886 1025 1131 794 b 603 -4 1131 226 886 -4 b 74 511 318 -4 74 226 b 603 1025 74 794 318 1025 m 603 1106 l 513 1106 l 601 1264 l 729 1264 "},"Û":{"ha":1072,"x_min":0,"x_max":0,"o":"m 222 460 b 535 135 222 250 350 135 b 850 460 721 135 850 250 l 850 1021 l 989 1021 l 989 460 b 536 -4 989 143 767 -4 b 83 460 306 -4 83 143 l 83 1021 l 222 1021 m 485 1264 l 588 1264 l 713 1106 l 614 1106 l 551 1185 l 521 1185 l 458 1106 l 360 1106 "},"Ù":{"ha":1072,"x_min":0,"x_max":0,"o":"m 222 460 b 535 135 222 250 350 135 b 850 460 721 135 850 250 l 850 1021 l 989 1021 l 989 460 b 536 -4 989 143 767 -4 b 83 460 306 -4 83 143 l 83 1021 l 222 1021 m 386 1264 l 514 1264 l 603 1106 l 513 1106 "},"Ž":{"ha":917,"x_min":0,"x_max":0,"o":"m 69 193 l 722 868 l 722 896 l 69 896 l 69 1021 l 847 1021 l 847 826 l 194 151 l 194 125 l 847 125 l 847 0 l 69 0 m 282 1264 l 381 1264 l 443 1185 l 474 1185 l 536 1264 l 635 1264 l 510 1106 l 407 1106 "},"Š":{"ha":1022,"x_min":0,"x_max":0,"o":"m 508 888 b 239 746 369 888 239 824 b 522 613 239 639 369 613 b 953 307 733 613 953 553 b 500 -4 953 115 717 -4 b 46 157 308 -4 160 57 l 128 278 b 499 135 218 189 342 135 b 799 307 685 135 799 222 b 529 469 799 431 685 469 b 85 746 324 469 85 515 b 508 1026 85 944 338 1026 b 894 926 631 1026 783 996 l 894 758 l 772 758 l 756 842 b 508 888 683 875 590 888 m 335 1264 l 433 1264 l 496 1185 l 526 1185 l 589 1264 l 688 1264 l 563 1106 l 460 1106 "},"£":{"ha":1014,"x_min":0,"x_max":0,"o":"m 97 100 b 268 325 203 174 268 228 b 256 417 268 357 263 386 l 83 417 l 83 514 l 226 514 b 185 703 206 575 185 636 b 508 1026 185 881 331 1026 b 833 703 688 1026 833 881 l 694 703 b 508 894 694 804 611 894 b 324 703 407 894 324 804 b 365 514 324 639 344 576 l 679 514 l 679 417 l 394 417 b 407 325 401 386 407 356 b 374 208 407 300 396 257 b 676 139 476 199 574 139 b 792 254 750 139 792 181 l 931 254 b 676 0 931 104 840 0 b 343 72 558 0 456 72 b 181 0 292 72 258 58 "},"¬":{"ha":911,"x_min":0,"x_max":0,"o":"m 814 297 l 703 297 l 703 528 l 97 528 l 97 639 l 814 639 "},"Ќ":{"ha":1047,"x_min":0,"x_max":0,"o":"m 690 896 b 867 1021 728 976 792 1021 l 908 1007 l 908 882 l 867 882 b 811 833 846 882 825 864 l 718 629 b 640 538 700 589 672 547 b 744 418 679 522 719 474 l 850 189 b 908 135 865 154 886 135 l 964 135 l 964 10 l 908 -4 b 728 121 833 -4 765 40 l 596 401 b 524 456 582 436 546 456 l 222 456 l 222 0 l 83 0 l 83 1021 l 222 1021 l 222 594 l 503 594 b 572 643 525 594 558 608 m 507 1106 l 417 1106 l 506 1264 l 633 1264 "},"~":{"ha":1058,"x_min":0,"x_max":0,"o":"m 575 500 b 731 413 675 422 701 413 b 836 553 808 413 836 490 l 961 553 b 731 288 961 421 883 288 b 488 407 667 288 613 308 b 328 499 383 489 357 499 b 222 358 250 499 222 421 l 97 358 b 328 624 97 490 175 624 b 575 500 392 624 444 603 "},"˜":{"ha":731,"x_min":0,"x_max":0,"o":"m 411 863 b 258 931 325 863 297 931 b 206 863 228 931 206 896 l 117 863 b 258 1021 117 951 178 1021 b 411 953 344 1021 371 953 b 464 1021 442 953 464 990 l 553 1021 b 411 863 553 931 492 863 "},"õ":{"ha":915,"x_min":0,"x_max":0,"o":"m 458 782 b 861 390 674 782 861 606 b 458 -4 861 172 674 -4 b 54 390 242 -4 54 172 b 458 782 54 606 242 782 m 458 643 b 193 390 317 643 193 529 b 458 135 193 249 317 135 b 722 390 600 135 722 249 b 458 643 722 529 600 643 m 533 863 b 381 931 447 863 419 931 b 328 863 350 931 328 896 l 239 863 b 381 1021 239 951 300 1021 b 533 953 467 1021 493 953 b 586 1021 564 953 586 990 l 675 1021 b 533 863 675 931 614 863 "},"Õ":{"ha":1204,"x_min":0,"x_max":0,"o":"m 678 1106 b 525 1174 592 1106 564 1174 b 472 1106 494 1174 472 1139 l 383 1106 b 525 1264 383 1194 444 1264 b 678 1196 611 1264 638 1196 b 731 1264 708 1196 731 1233 l 819 1264 b 678 1106 819 1174 758 1106 m 601 886 b 213 511 379 886 213 701 b 601 135 213 288 410 135 b 992 511 826 135 992 321 b 601 886 992 739 789 886 m 601 1025 b 1131 511 886 1025 1131 794 b 601 -4 1131 226 886 -4 b 74 511 318 -4 74 226 b 601 1025 74 794 318 1025 "},"˛":{"ha":342,"x_min":0,"x_max":0,"o":"m 263 -285 b 197 -301 240 -299 218 -301 b 79 -169 133 -301 79 -242 b 196 13 79 -110 119 -32 l 251 0 b 193 -142 210 -58 193 -94 b 236 -192 193 -171 214 -192 b 263 -183 244 -192 253 -189 "},"Ą":{"ha":1111,"x_min":0,"x_max":0,"o":"m 975 -285 b 910 -301 953 -299 931 -301 b 792 -169 846 -301 792 -242 b 889 0 792 -115 825 -46 l 806 279 l 306 279 l 222 0 l 83 0 l 389 1021 l 722 1021 l 1028 0 l 964 0 b 906 -142 922 -58 906 -94 b 949 -192 906 -171 926 -192 b 975 -183 957 -192 965 -189 m 343 404 l 768 404 l 621 896 l 490 896 "},"ć":{"ha":807,"x_min":0,"x_max":0,"o":"m 438 643 b 179 390 296 643 179 543 b 438 135 179 235 296 135 b 683 228 613 135 683 231 l 771 118 b 438 -4 764 111 649 -4 b 40 390 221 -4 40 158 b 438 782 40 619 221 782 b 726 701 614 782 722 704 l 726 557 l 611 557 l 606 610 b 438 643 569 625 511 643 m 454 863 l 364 863 l 453 1021 l 581 1021 "},"Ć":{"ha":1032,"x_min":0,"x_max":0,"o":"m 796 847 b 588 888 736 876 665 888 b 199 511 396 888 199 735 b 588 135 199 288 396 135 b 889 275 713 135 819 192 l 988 176 b 588 -4 889 67 744 -4 b 60 511 304 -4 60 226 b 588 1026 60 796 304 1026 b 935 926 710 1026 824 996 l 935 758 l 813 758 m 594 1106 l 504 1106 l 593 1264 l 721 1264 "},"ą":{"ha":844,"x_min":0,"x_max":0,"o":"m 750 -285 b 685 -301 728 -299 706 -301 b 567 -169 621 -301 567 -242 b 664 0 567 -115 600 -46 l 642 115 b 319 -4 565 54 460 -4 b 69 247 182 -4 69 108 b 319 497 69 385 182 497 l 633 497 b 444 650 618 608 546 650 b 257 613 360 650 313 642 l 249 557 l 138 557 l 138 696 b 444 782 238 746 308 782 b 775 465 636 782 775 682 l 775 0 l 739 0 b 681 -142 697 -58 681 -94 b 724 -192 681 -171 701 -192 b 750 -183 732 -192 740 -189 m 319 131 b 636 256 471 131 561 183 l 636 363 l 319 363 b 204 247 256 363 204 311 b 319 131 204 183 256 131 "},"į":{"ha":333,"x_min":0,"x_max":0,"o":"m 236 -285 b 171 -301 214 -299 192 -301 b 53 -169 107 -301 53 -242 b 150 0 53 -115 86 -46 l 97 0 l 97 778 l 236 778 l 236 0 l 225 0 b 167 -142 183 -58 167 -94 b 210 -192 167 -171 188 -192 b 236 -183 218 -192 226 -189 m 79 974 b 167 1054 79 1018 118 1054 b 256 974 215 1054 256 1018 b 167 894 256 929 215 894 b 79 974 118 894 79 929 "},"Į":{"ha":333,"x_min":0,"x_max":0,"o":"m 236 -285 b 171 -301 214 -299 192 -301 b 53 -169 107 -301 53 -242 b 150 0 53 -115 86 -46 l 97 0 l 97 1021 l 236 1021 l 236 0 l 225 0 b 167 -142 183 -58 167 -94 b 210 -192 167 -171 188 -192 b 236 -183 218 -192 226 -189 "},"ę":{"ha":882,"x_min":0,"x_max":0,"o":"m 458 131 b 704 228 633 131 704 231 l 792 118 b 606 -142 701 36 606 -37 b 649 -192 606 -171 626 -192 b 675 -183 657 -192 665 -189 l 675 -285 b 610 -301 653 -299 631 -301 b 492 -169 546 -301 492 -242 l 492 -160 b 579 8 494 -90 536 -36 b 458 -4 544 1 504 -4 b 54 390 242 -4 54 172 b 458 782 54 606 242 782 b 828 504 654 782 828 660 b 664 340 828 414 754 340 l 197 340 b 458 131 222 221 333 131 m 458 647 b 207 469 344 647 243 571 l 664 469 b 696 504 682 469 696 486 b 458 647 696 569 600 647 "},"Ę":{"ha":944,"x_min":0,"x_max":0,"o":"m 861 132 l 861 0 b 792 -142 819 -57 792 -94 b 835 -192 792 -171 813 -192 b 861 -183 843 -192 851 -189 l 861 -285 b 796 -301 839 -299 817 -301 b 678 -169 732 -301 678 -242 b 786 0 678 -115 721 -46 l 83 0 l 83 1021 l 819 1021 l 819 889 l 222 889 l 222 594 l 708 594 l 708 463 l 222 463 l 222 132 "},"č":{"ha":807,"x_min":0,"x_max":0,"o":"m 438 643 b 179 390 296 643 179 543 b 438 135 179 235 296 135 b 683 228 613 135 683 231 l 771 118 b 438 -4 764 111 649 -4 b 40 390 221 -4 40 158 b 438 782 40 619 221 782 b 726 701 614 782 722 704 l 726 557 l 611 557 l 606 610 b 438 643 569 625 511 643 m 263 1021 l 361 1021 l 424 942 l 454 942 l 517 1021 l 615 1021 l 490 863 l 388 863 "},"Č":{"ha":1032,"x_min":0,"x_max":0,"o":"m 796 847 b 588 888 736 876 665 888 b 199 511 396 888 199 735 b 588 135 199 288 396 135 b 889 275 713 135 819 192 l 988 176 b 588 -4 889 67 744 -4 b 60 511 304 -4 60 226 b 588 1026 60 796 304 1026 b 935 926 710 1026 824 996 l 935 758 l 813 758 m 394 1264 l 493 1264 l 556 1185 l 586 1185 l 649 1264 l 747 1264 l 622 1106 l 519 1106 "},"ź":{"ha":817,"x_min":0,"x_max":0,"o":"m 69 208 l 608 626 l 608 653 l 69 653 l 69 778 l 747 778 l 747 575 l 208 158 l 208 139 l 747 139 l 747 0 l 69 0 m 432 863 l 342 863 l 431 1021 l 558 1021 "},"Ź":{"ha":917,"x_min":0,"x_max":0,"o":"m 69 193 l 722 868 l 722 896 l 69 896 l 69 1021 l 847 1021 l 847 826 l 194 151 l 194 125 l 847 125 l 847 0 l 69 0 m 482 1106 l 392 1106 l 481 1264 l 608 1264 "},"ń":{"ha":844,"x_min":0,"x_max":0,"o":"m 69 0 l 69 778 l 181 778 l 203 660 b 476 782 290 726 386 782 b 775 486 650 782 775 685 l 775 0 l 636 0 l 636 494 b 486 650 636 576 583 650 b 208 526 389 650 303 601 l 208 0 m 432 863 l 342 863 l 431 1021 l 558 1021 "},"Ń":{"ha":1022,"x_min":0,"x_max":0,"o":"m 800 1021 l 939 1021 l 939 0 l 678 0 l 254 903 l 222 903 l 222 0 l 83 0 l 83 1021 l 344 1021 l 768 118 l 800 118 m 521 1106 l 431 1106 l 519 1264 l 647 1264 "},"Ų":{"ha":1072,"x_min":0,"x_max":0,"o":"m 736 -285 b 671 -301 714 -299 692 -301 b 553 -169 607 -301 553 -242 b 672 15 553 -110 593 -32 b 536 -4 628 1 582 -4 b 83 460 306 -4 83 143 l 83 1021 l 222 1021 l 222 460 b 535 135 222 250 350 135 b 850 460 721 135 850 250 l 850 1021 l 989 1021 l 989 460 b 807 76 989 281 913 154 b 667 -142 740 28 667 -50 b 710 -192 667 -171 688 -192 b 736 -183 718 -192 726 -189 "},"ų":{"ha":872,"x_min":0,"x_max":0,"o":"m 778 -285 b 713 -301 756 -299 733 -301 b 594 -169 649 -301 594 -242 b 692 0 594 -115 628 -46 l 667 126 b 383 -4 576 57 476 -4 b 69 264 192 -4 69 89 l 69 778 l 208 778 l 208 264 b 383 128 208 174 269 128 b 664 263 483 128 565 181 l 664 778 l 803 778 l 803 0 l 767 0 b 708 -142 725 -58 708 -94 b 751 -192 708 -171 729 -192 b 778 -183 760 -192 768 -189 "},"Ś":{"ha":1022,"x_min":0,"x_max":0,"o":"m 508 888 b 239 746 369 888 239 824 b 522 613 239 639 369 613 b 953 307 733 613 953 553 b 500 -4 953 115 717 -4 b 46 157 308 -4 160 57 l 128 278 b 499 135 218 189 342 135 b 799 307 685 135 799 222 b 529 469 799 431 685 469 b 85 746 324 469 85 515 b 508 1026 85 944 338 1026 b 894 926 631 1026 783 996 l 894 758 l 772 758 l 756 842 b 508 888 683 875 590 888 m 521 1106 l 431 1106 l 519 1264 l 647 1264 "},"ś":{"ha":846,"x_min":0,"x_max":0,"o":"m 424 -4 b 56 118 213 -4 63 113 l 143 228 b 424 132 143 231 249 132 b 646 240 519 132 646 163 b 424 333 646 292 615 333 b 85 557 193 333 85 415 b 424 782 85 682 228 782 b 733 701 600 782 729 704 l 733 564 l 626 564 l 608 610 b 424 646 567 626 504 646 b 224 557 314 646 224 611 b 424 469 224 508 265 469 b 785 240 628 469 785 401 b 424 -4 785 93 631 -4 m 446 863 l 356 863 l 444 1021 l 572 1021 "},"Ō":{"ha":1176,"x_min":0,"x_max":0,"o":"m 750 1225 l 750 1142 l 425 1142 l 425 1225 m 588 886 b 199 511 365 886 199 701 b 588 135 199 288 396 135 b 978 511 813 135 978 321 b 588 886 978 739 775 886 m 588 1025 b 1117 511 872 1025 1117 794 b 588 -4 1117 226 872 -4 b 60 511 304 -4 60 226 b 588 1025 60 794 304 1025 "},"Ī":{"ha":333,"x_min":0,"x_max":0,"o":"m 329 1225 l 329 1142 l 4 1142 l 4 1225 m 236 0 l 97 0 l 97 1021 l 236 1021 "},"ī":{"ha":333,"x_min":0,"x_max":0,"o":"m 329 978 l 329 894 l 4 894 l 4 978 m 236 0 l 97 0 l 97 778 l 236 778 "},"Ā":{"ha":1111,"x_min":0,"x_max":0,"o":"m 718 1225 l 718 1142 l 393 1142 l 393 1225 m 222 0 l 83 0 l 389 1021 l 722 1021 l 1028 0 l 889 0 l 806 279 l 306 279 m 343 404 l 768 404 l 621 896 l 490 896 "},"Ē":{"ha":944,"x_min":0,"x_max":0,"o":"m 624 1225 l 624 1142 l 299 1142 l 299 1225 m 861 132 l 861 0 l 83 0 l 83 1021 l 819 1021 l 819 889 l 222 889 l 222 594 l 708 594 l 708 463 l 222 463 l 222 132 "},"ē":{"ha":882,"x_min":0,"x_max":0,"o":"m 625 978 l 625 894 l 300 894 l 300 978 m 458 131 b 704 228 633 131 704 231 l 792 118 b 458 -4 785 111 669 -4 b 54 390 242 -4 54 172 b 458 782 54 606 242 782 b 828 504 654 782 828 660 b 664 340 828 414 754 340 l 197 340 b 458 131 222 221 333 131 m 458 647 b 207 469 344 647 243 571 l 664 469 b 696 504 682 469 696 486 b 458 647 696 569 600 647 "},"ā":{"ha":844,"x_min":0,"x_max":0,"o":"m 607 978 l 607 894 l 282 894 l 282 978 m 319 -4 b 69 247 182 -4 69 108 b 319 497 69 385 182 497 l 633 497 b 444 650 618 608 546 650 b 257 613 360 650 313 642 l 249 557 l 138 557 l 138 696 b 444 782 238 746 308 782 b 775 465 636 782 775 682 l 775 0 l 664 0 l 642 115 b 319 -4 565 54 460 -4 m 319 131 b 636 256 471 131 561 183 l 636 363 l 319 363 b 204 247 256 363 204 311 b 319 131 204 183 256 131 "},"ō":{"ha":915,"x_min":0,"x_max":0,"o":"m 619 978 l 619 894 l 294 894 l 294 978 m 458 782 b 861 390 674 782 861 606 b 458 -4 861 172 674 -4 b 54 390 242 -4 54 172 b 458 782 54 606 242 782 m 458 643 b 193 390 317 643 193 529 b 458 135 193 249 317 135 b 722 390 600 135 722 249 b 458 643 722 529 600 643 "},"ū":{"ha":872,"x_min":0,"x_max":0,"o":"m 607 978 l 607 894 l 282 894 l 282 978 m 208 264 b 383 128 208 174 269 128 b 664 263 483 128 565 181 l 664 778 l 803 778 l 803 0 l 692 0 l 667 126 b 383 -4 576 57 476 -4 b 69 264 192 -4 69 89 l 69 778 l 208 778 "},"Ū":{"ha":1072,"x_min":0,"x_max":0,"o":"m 699 1225 l 699 1142 l 374 1142 l 374 1225 m 222 460 b 535 135 222 250 350 135 b 850 460 721 135 850 250 l 850 1021 l 989 1021 l 989 460 b 536 -4 989 143 767 -4 b 83 460 306 -4 83 143 l 83 1021 l 222 1021 "},"˙":{"ha":346,"x_min":0,"x_max":0,"o":"m 107 960 b 172 1026 107 996 136 1026 b 239 960 208 1026 239 996 b 172 894 239 924 208 894 b 107 960 136 894 107 924 "},"ż":{"ha":817,"x_min":0,"x_max":0,"o":"m 69 208 l 608 626 l 608 653 l 69 653 l 69 778 l 747 778 l 747 575 l 208 158 l 208 139 l 747 139 l 747 0 l 69 0 m 342 960 b 407 1026 342 996 371 1026 b 474 960 443 1026 474 996 b 407 894 474 924 443 894 b 342 960 371 894 342 924 "},"Ż":{"ha":917,"x_min":0,"x_max":0,"o":"m 69 193 l 722 868 l 722 896 l 69 896 l 69 1021 l 847 1021 l 847 826 l 194 151 l 194 125 l 847 125 l 847 0 l 69 0 m 392 1203 b 457 1269 392 1239 421 1269 b 524 1203 493 1269 524 1239 b 457 1138 524 1167 493 1138 b 392 1203 421 1138 392 1167 "},"ė":{"ha":882,"x_min":0,"x_max":0,"o":"m 399 960 b 464 1026 399 996 428 1026 b 531 960 500 1026 531 996 b 464 894 531 924 500 894 b 399 960 428 894 399 924 m 458 131 b 704 228 633 131 704 231 l 792 118 b 458 -4 785 111 669 -4 b 54 390 242 -4 54 172 b 458 782 54 606 242 782 b 828 504 654 782 828 660 b 664 340 828 414 754 340 l 197 340 b 458 131 222 221 333 131 m 458 647 b 207 469 344 647 243 571 l 664 469 b 696 504 682 469 696 486 b 458 647 696 569 600 647 "},"Ė":{"ha":944,"x_min":0,"x_max":0,"o":"m 861 132 l 861 0 l 83 0 l 83 1021 l 819 1021 l 819 889 l 222 889 l 222 594 l 708 594 l 708 463 l 222 463 l 222 132 m 406 1203 b 471 1269 406 1239 435 1269 b 538 1203 507 1269 538 1239 b 471 1138 538 1167 507 1138 b 406 1203 435 1138 406 1167 "},"ã":{"ha":844,"x_min":0,"x_max":0,"o":"m 319 -4 b 69 247 182 -4 69 108 b 319 497 69 385 182 497 l 633 497 b 444 650 618 608 546 650 b 257 613 360 650 313 642 l 249 557 l 138 557 l 138 696 b 444 782 238 746 308 782 b 775 465 636 782 775 682 l 775 0 l 664 0 l 642 115 b 319 -4 565 54 460 -4 m 319 131 b 636 256 471 131 561 183 l 636 363 l 319 363 b 204 247 256 363 204 311 b 319 131 204 183 256 131 m 519 863 b 367 931 433 863 406 931 b 314 863 336 931 314 896 l 225 863 b 367 1021 225 951 286 1021 b 519 953 453 1021 479 953 b 572 1021 550 953 572 990 l 661 1021 b 519 863 661 931 600 863 "},"Ã":{"ha":1111,"x_min":0,"x_max":0,"o":"m 222 0 l 83 0 l 389 1021 l 722 1021 l 1028 0 l 889 0 l 806 279 l 306 279 m 343 404 l 768 404 l 621 896 l 490 896 m 632 1106 b 479 1174 546 1106 518 1174 b 426 1106 449 1174 426 1139 l 338 1106 b 479 1264 338 1194 399 1264 b 632 1196 565 1264 592 1196 b 685 1264 663 1196 685 1233 l 774 1264 b 632 1106 774 1174 713 1106 "},"Ñ":{"ha":1022,"x_min":0,"x_max":0,"o":"m 800 1021 l 939 1021 l 939 0 l 678 0 l 254 903 l 222 903 l 222 0 l 83 0 l 83 1021 l 344 1021 l 768 118 l 800 118 m 588 1106 b 435 1174 501 1106 474 1174 b 382 1106 404 1174 382 1139 l 293 1106 b 435 1264 293 1194 354 1264 b 588 1196 521 1264 547 1196 b 640 1264 618 1196 640 1233 l 729 1264 b 588 1106 729 1174 668 1106 "},"ñ":{"ha":844,"x_min":0,"x_max":0,"o":"m 69 0 l 69 778 l 181 778 l 203 660 b 476 782 290 726 386 782 b 775 486 650 782 775 685 l 775 0 l 636 0 l 636 494 b 486 650 636 576 583 650 b 208 526 389 650 303 601 l 208 0 m 499 863 b 346 931 413 863 385 931 b 293 863 315 931 293 896 l 204 863 b 346 1021 204 951 265 1021 b 499 953 432 1021 458 953 b 551 1021 529 953 551 990 l 640 1021 b 499 863 640 931 579 863 "},"№":{"ha":1526,"x_min":0,"x_max":0,"o":"m 83 118 l 167 118 l 167 993 l 432 993 l 772 118 l 804 118 l 804 993 l 1026 993 l 1026 875 l 943 875 l 943 0 l 678 0 l 338 875 l 306 875 l 306 0 l 83 0 m 1249 782 b 1443 554 1376 782 1443 683 b 1249 329 1443 426 1376 329 b 1054 554 1119 329 1054 426 b 1249 782 1054 683 1119 782 m 1249 668 b 1168 554 1206 668 1168 617 b 1249 443 1168 494 1206 443 b 1329 554 1292 443 1329 494 b 1249 668 1329 617 1292 668 m 1054 232 l 1443 232 l 1443 118 l 1054 118 "},"₽":{"ha":1019,"x_min":0,"x_max":0,"o":"m 194 444 l 194 1021 l 582 1021 b 936 667 778 1021 936 863 b 582 313 936 472 778 313 l 333 313 l 333 229 l 721 229 l 721 132 l 333 132 l 333 0 l 194 0 l 194 132 l 83 132 l 83 229 l 194 229 l 194 314 l 83 314 l 83 444 m 333 889 l 333 444 l 582 444 b 797 667 696 444 797 551 b 582 889 797 783 697 889 "},"Џ":{"ha":986,"x_min":0,"x_max":0,"o":"m 424 -208 l 424 0 l 83 0 l 83 1021 l 222 1021 l 222 125 l 764 125 l 764 1021 l 903 1021 l 903 0 l 563 0 l 563 -208 "},"џ":{"ha":817,"x_min":0,"x_max":0,"o":"m 747 0 l 478 0 l 478 -194 l 339 -194 l 339 0 l 69 0 l 69 778 l 208 778 l 208 129 l 608 129 l 608 778 l 747 778 "},"Ћ":{"ha":1254,"x_min":0,"x_max":0,"o":"m 847 553 b 569 429 750 553 664 504 l 569 0 l 431 0 l 431 896 l 69 896 l 69 1021 l 986 1021 l 986 896 l 569 896 l 569 567 b 838 685 656 632 749 685 b 1136 389 1011 685 1136 588 l 1136 0 l 997 0 l 997 397 b 847 553 997 479 944 553 "},"Ђ":{"ha":1206,"x_min":0,"x_max":0,"o":"m 754 132 l 838 132 b 997 353 947 132 997 208 b 839 553 997 483 919 553 b 569 429 746 553 660 504 l 569 0 l 431 0 l 431 896 l 69 896 l 69 1021 l 986 1021 l 986 896 l 569 896 l 569 567 b 838 685 656 632 749 685 b 1136 347 1007 685 1136 615 b 838 0 1136 107 1004 0 l 754 0 "},"ћ":{"ha":983,"x_min":0,"x_max":0,"o":"m 208 931 l 208 1021 l 347 1021 l 347 931 l 671 931 l 671 839 l 347 839 l 347 608 b 615 726 433 674 526 726 b 914 431 789 726 914 629 l 914 0 l 775 0 l 775 439 b 625 594 775 521 722 594 b 347 471 528 594 442 546 l 347 0 l 208 0 l 208 839 l 83 839 l 83 931 "},"ђ":{"ha":942,"x_min":0,"x_max":0,"o":"m 574 -176 b 733 -21 671 -176 733 -103 l 733 439 b 583 594 733 521 681 594 b 306 471 486 594 400 546 l 306 0 l 167 0 l 167 839 l 42 839 l 42 931 l 167 931 l 167 1021 l 306 1021 l 306 931 l 629 931 l 629 839 l 306 839 l 306 608 b 574 726 392 674 485 726 b 872 431 747 726 872 629 l 872 -6 b 574 -301 872 -204 747 -301 "},"ð":{"ha":897,"x_min":0,"x_max":0,"o":"m 693 1088 l 731 1021 l 586 938 b 811 467 704 828 811 665 b 426 -4 811 136 635 -4 b 39 349 211 -4 39 131 b 417 717 39 557 171 717 b 650 635 507 717 599 682 b 489 881 622 721 563 808 l 268 753 l 231 818 l 429 933 b 279 1025 382 972 329 1004 l 343 1088 b 525 989 390 1075 457 1042 m 426 135 b 674 433 563 135 674 243 b 417 590 638 531 519 590 b 178 349 272 590 178 494 b 426 135 178 207 286 136 "},"Ð":{"ha":1060,"x_min":0,"x_max":0,"o":"m 111 0 l 111 469 l 21 469 l 21 581 l 111 581 l 111 1021 l 471 1021 b 1000 511 756 1021 1000 794 b 471 0 1000 226 756 0 m 483 581 l 483 469 l 250 469 l 250 135 l 471 135 b 861 511 696 135 861 321 b 471 886 861 739 658 886 l 250 886 l 250 581 "},"Æ":{"ha":1649,"x_min":0,"x_max":0,"o":"m 222 0 l 83 0 l 389 1021 l 1524 1021 l 1524 889 l 926 889 l 926 594 l 1413 594 l 1413 463 l 926 463 l 926 132 l 1565 132 l 1565 0 l 788 0 l 788 463 l 360 463 m 788 896 l 490 896 l 400 594 l 788 594 "},"æ":{"ha":1507,"x_min":0,"x_max":0,"o":"m 1083 131 b 1329 228 1258 131 1329 231 l 1417 118 b 1083 -4 1410 111 1294 -4 b 756 161 951 -4 829 61 b 347 -4 653 61 528 -4 b 69 247 210 -4 69 108 b 319 483 69 385 182 483 l 685 483 b 458 651 669 594 560 651 b 257 613 374 651 313 642 l 249 557 l 138 557 l 138 696 b 458 782 238 746 322 782 b 781 647 583 782 724 739 b 1083 782 856 729 965 782 b 1453 518 1279 782 1453 660 b 1289 353 1453 428 1379 353 l 822 353 l 822 340 b 1083 131 847 221 958 131 m 347 131 b 688 256 499 131 613 183 l 688 353 l 319 353 b 204 247 256 353 204 311 b 347 131 204 183 283 131 m 1289 483 b 1321 518 1307 483 1321 500 b 1083 647 1321 569 1225 647 b 836 483 974 647 876 578 "},"œ":{"ha":1549,"x_min":0,"x_max":0,"o":"m 1125 131 b 1371 228 1300 131 1371 231 l 1458 118 b 1125 -4 1451 111 1336 -4 b 790 174 988 -4 864 67 l 789 169 b 458 -4 715 64 592 -4 b 54 390 242 -4 54 172 b 458 782 54 606 242 782 b 789 610 592 782 715 713 l 790 604 b 1125 782 863 711 988 782 b 1494 504 1321 782 1494 660 b 1331 340 1494 414 1421 340 l 865 340 b 1125 131 890 219 1000 131 m 458 643 b 193 390 317 643 193 529 b 458 135 193 249 317 135 b 722 390 600 135 722 249 b 458 643 722 528 600 644 m 1125 647 b 874 469 1011 647 910 571 l 1331 469 b 1363 504 1349 469 1363 486 b 1125 647 1363 569 1267 647 "},"Œ":{"ha":1760,"x_min":0,"x_max":0,"o":"m 1676 132 l 1676 0 l 899 0 l 899 115 b 588 -4 819 39 697 -4 b 60 511 304 -4 60 226 b 588 1025 60 794 304 1025 b 899 904 697 1025 819 981 l 899 1021 l 1635 1021 l 1635 889 l 1038 889 l 1038 594 l 1524 594 l 1524 463 l 1038 463 l 1038 132 m 588 886 b 199 511 365 886 199 701 b 588 135 199 288 396 135 b 899 288 718 135 829 197 l 899 736 b 588 886 822 831 701 886 "},"§":{"ha":1011,"x_min":0,"x_max":0,"o":"m 235 -81 b 481 -167 333 -154 413 -167 b 681 -39 606 -167 681 -117 b 467 67 681 40 592 67 b 106 358 269 67 106 154 b 242 596 106 465 158 546 b 175 760 200 633 175 686 b 529 1026 175 958 358 1026 b 844 926 651 1026 733 996 l 775 801 b 529 888 676 875 597 888 b 329 760 404 888 329 838 b 543 654 329 681 418 654 b 904 363 740 654 904 567 b 767 125 904 254 851 175 b 835 -39 808 88 835 35 b 481 -306 835 -237 651 -306 b 165 -206 358 -306 276 -275 m 550 511 b 458 515 519 511 489 513 b 260 358 299 507 260 438 b 460 210 260 276 318 210 b 551 204 490 210 521 208 b 750 363 711 213 750 282 b 550 511 750 444 692 511 "},"Ў":{"ha":1028,"x_min":0,"x_max":0,"o":"m 731 1263 b 511 1092 731 1158 636 1092 b 292 1263 386 1092 292 1158 l 386 1263 b 511 1175 390 1203 438 1175 b 635 1263 585 1175 631 1201 m 449 -4 l 322 24 l 322 135 l 504 135 b 567 189 526 135 557 156 l 603 307 l 422 307 b 243 446 325 307 267 369 l 69 1021 l 208 1021 l 369 482 b 431 432 378 456 404 432 l 640 432 l 817 1021 l 956 1021 l 685 121 b 504 -4 661 43 579 -4 "},"˘":{"ha":661,"x_min":0,"x_max":0,"o":"m 550 1263 b 331 1092 550 1158 456 1092 b 111 1263 206 1092 111 1158 l 206 1263 b 331 1175 210 1203 257 1175 b 454 1263 404 1175 450 1201 "},"ў":{"ha":826,"x_min":0,"x_max":0,"o":"m 649 1054 b 422 864 649 950 561 864 b 196 1054 283 864 196 950 l 311 1054 b 422 964 311 1003 342 964 b 532 1054 503 964 532 1003 m 46 778 l 185 778 l 376 139 l 450 139 l 642 778 l 781 778 l 496 -176 b 315 -301 472 -257 390 -301 l 233 -287 l 233 -162 l 315 -162 b 375 -110 338 -162 368 -144 l 407 0 l 278 0 "},"¯":{"ha":622,"x_min":0,"x_max":0,"o":"m 529 1225 l 529 1142 l 93 1142 l 93 1225 "},"Ң":{"ha":1125,"x_min":0,"x_max":0,"o":"m 917 -208 l 903 0 l 806 0 l 806 463 l 222 463 l 222 0 l 83 0 l 83 1021 l 222 1021 l 222 588 l 806 588 l 806 1021 l 944 1021 l 944 125 l 1042 125 l 1042 -208 "},"¼":{"ha":1199,"x_min":0,"x_max":0,"o":"m 61 925 b 175 1001 129 925 175 954 l 175 1021 l 276 1021 l 276 500 l 175 500 l 175 846 b 61 824 146 833 106 824 m 1101 117 l 1101 0 l 1001 0 l 1001 117 l 722 117 l 722 210 l 1008 521 l 1101 521 l 1101 217 l 1138 217 l 1138 117 m 1001 217 l 1001 382 l 860 217 m 832 1021 l 979 1021 l 340 0 l 193 0 "},"½":{"ha":1185,"x_min":0,"x_max":0,"o":"m 1124 0 l 724 0 l 724 50 b 907 263 724 124 738 171 b 1022 358 958 290 1022 318 b 931 421 1022 410 972 421 b 822 332 886 421 822 390 l 721 332 b 931 522 725 456 832 522 b 1124 358 1032 522 1124 469 b 981 190 1124 272 1051 226 b 857 101 911 154 857 124 l 1124 101 m 131 925 b 244 1001 199 925 244 954 l 244 1021 l 346 1021 l 346 500 l 244 500 l 244 846 b 131 824 215 833 175 824 m 832 1021 l 979 1021 l 340 0 l 193 0 "},"¾":{"ha":1201,"x_min":0,"x_max":0,"o":"m 1101 117 l 1101 0 l 1001 0 l 1001 117 l 722 117 l 722 210 l 1008 521 l 1101 521 l 1101 217 l 1138 217 l 1138 117 m 1001 217 l 1001 382 l 860 217 m 265 506 b 64 694 164 506 64 579 l 163 694 b 265 607 169 632 217 607 b 349 685 303 607 349 628 b 217 767 349 767 292 767 l 217 858 l 294 929 l 74 929 l 74 1021 l 428 1021 l 428 929 l 331 850 b 449 685 406 824 449 782 b 265 506 449 576 361 506 m 832 1021 l 979 1021 l 340 0 l 193 0 "},"¹":{"ha":476,"x_min":0,"x_max":0,"o":"m 131 925 b 244 1001 199 925 244 954 l 244 1021 l 346 1021 l 346 500 l 244 500 l 244 846 b 131 824 215 833 175 824 "},"³":{"ha":593,"x_min":0,"x_max":0,"o":"m 306 506 b 104 694 204 506 104 579 l 203 694 b 306 607 210 632 257 607 b 389 685 343 607 389 628 b 257 767 389 767 332 767 l 257 858 l 335 929 l 128 929 l 128 1021 l 468 1021 l 468 929 l 371 850 b 489 685 446 824 489 782 b 306 506 489 576 401 506 "},"²":{"ha":583,"x_min":0,"x_max":0,"o":"m 479 506 l 107 506 l 107 556 b 269 768 107 653 158 711 b 378 864 324 794 378 825 b 300 926 378 915 342 926 b 206 838 256 926 206 896 l 104 838 b 300 1028 108 961 201 1028 b 479 864 401 1028 479 975 b 226 607 479 699 226 661 l 479 607 "},"º":{"ha":564,"x_min":0,"x_max":0,"o":"m 282 1025 b 494 764 425 1025 494 908 b 282 503 494 621 425 503 b 69 764 139 503 69 621 b 282 1025 69 908 139 1025 m 282 936 b 168 764 206 936 168 868 b 282 592 168 661 206 592 b 396 764 358 592 396 661 b 282 936 396 868 358 936 "},"ß":{"ha":971,"x_min":0,"x_max":0,"o":"m 442 125 l 599 125 b 751 292 683 125 751 207 b 599 463 751 376 683 463 l 442 463 l 442 588 l 572 588 b 710 747 649 588 710 672 b 503 900 710 825 649 900 b 296 747 357 900 296 825 l 296 0 l 157 0 l 157 588 l 35 588 l 35 713 l 157 713 l 157 747 b 503 1025 157 901 279 1025 b 849 747 726 1025 849 901 b 742 538 849 665 799 569 b 890 292 822 504 890 394 b 599 0 890 131 760 0 l 442 0 "},"ª":{"ha":556,"x_min":0,"x_max":0,"o":"m 69 660 b 250 825 69 744 131 825 b 392 803 306 825 364 811 l 392 833 b 292 938 392 904 356 938 b 189 910 238 938 222 926 l 183 875 l 107 875 l 107 968 b 292 1025 164 1001 206 1025 b 486 832 421 1025 486 964 l 486 506 l 410 506 l 392 576 b 250 503 356 538 308 503 b 69 660 135 503 69 575 m 167 660 b 253 590 167 614 203 590 b 392 672 299 590 363 628 l 392 717 b 246 739 347 732 292 739 b 167 660 201 739 167 707 "},"ŕ":{"ha":753,"x_min":0,"x_max":0,"o":"m 358 863 l 268 863 l 357 1021 l 485 1021 m 69 0 l 69 778 l 181 778 l 201 664 b 486 782 281 728 397 782 b 683 699 578 782 631 763 l 683 535 l 568 535 l 551 621 b 486 650 538 639 517 650 b 208 526 389 650 297 601 l 208 0 "},"Ŕ":{"ha":978,"x_min":0,"x_max":0,"o":"m 881 10 l 783 -4 b 603 121 708 -4 640 40 l 539 257 b 481 313 525 292 503 311 l 222 313 l 222 0 l 83 0 l 83 1021 l 540 1021 b 894 667 736 1021 894 863 b 660 333 894 514 796 382 l 725 189 b 783 135 740 154 761 135 l 881 135 m 222 889 l 222 444 l 540 444 b 756 667 654 444 756 551 b 540 889 756 783 656 889 m 471 1106 l 381 1106 l 469 1264 l 597 1264 "},"Ă":{"ha":1111,"x_min":0,"x_max":0,"o":"m 222 0 l 83 0 l 389 1021 l 722 1021 l 1028 0 l 889 0 l 806 279 l 306 279 m 343 404 l 768 404 l 621 896 l 490 896 m 775 1263 b 556 1092 775 1158 681 1092 b 336 1263 431 1092 336 1158 l 431 1263 b 556 1175 435 1203 482 1175 b 679 1263 629 1175 675 1201 "},"ů":{"ha":872,"x_min":0,"x_max":0,"o":"m 208 264 b 383 128 208 174 269 128 b 664 263 483 128 565 181 l 664 778 l 803 778 l 803 0 l 692 0 l 667 126 b 383 -4 576 57 476 -4 b 69 264 192 -4 69 89 l 69 778 l 208 778 m 324 954 b 436 1067 324 1015 375 1067 b 549 954 497 1067 549 1015 b 436 842 549 893 497 842 b 324 954 375 842 324 893 m 389 954 b 436 907 389 928 410 907 b 483 954 463 907 483 928 b 436 1001 483 981 463 1001 b 389 954 410 1001 389 981 "},"Ů":{"ha":1072,"x_min":0,"x_max":0,"o":"m 222 460 b 535 135 222 250 350 135 b 850 460 721 135 850 250 l 850 1021 l 989 1021 l 989 460 b 536 -4 989 143 767 -4 b 83 460 306 -4 83 143 l 83 1021 l 222 1021 m 424 1197 b 536 1310 424 1258 475 1310 b 649 1197 597 1310 649 1258 b 536 1085 649 1136 597 1085 b 424 1197 475 1085 424 1136 m 489 1197 b 536 1150 489 1171 510 1150 b 583 1197 563 1150 583 1171 b 536 1244 583 1224 563 1244 b 489 1197 510 1244 489 1224 "},"ř":{"ha":753,"x_min":0,"x_max":0,"o":"m 186 1021 l 285 1021 l 347 942 l 378 942 l 440 1021 l 539 1021 l 414 863 l 311 863 m 69 0 l 69 778 l 181 778 l 201 664 b 486 782 281 728 397 782 b 683 699 578 782 631 763 l 683 535 l 568 535 l 551 621 b 486 650 538 639 517 650 b 208 526 389 650 297 601 l 208 0 "},"Ř":{"ha":978,"x_min":0,"x_max":0,"o":"m 881 10 l 783 -4 b 603 121 708 -4 640 40 l 539 257 b 481 313 525 292 503 311 l 222 313 l 222 0 l 83 0 l 83 1021 l 540 1021 b 894 667 736 1021 894 863 b 660 333 894 514 796 382 l 725 189 b 783 135 740 154 761 135 l 881 135 m 222 889 l 222 444 l 540 444 b 756 667 654 444 756 551 b 540 889 756 783 656 889 m 257 1264 l 356 1264 l 418 1185 l 449 1185 l 511 1264 l 610 1264 l 485 1106 l 382 1106 "},"ň":{"ha":844,"x_min":0,"x_max":0,"o":"m 69 0 l 69 778 l 181 778 l 203 660 b 476 782 290 726 386 782 b 775 486 650 782 775 685 l 775 0 l 636 0 l 636 494 b 486 650 636 576 583 650 b 208 526 389 650 303 601 l 208 0 m 246 1021 l 344 1021 l 407 942 l 438 942 l 500 1021 l 599 1021 l 474 863 l 371 863 "},"Ň":{"ha":1022,"x_min":0,"x_max":0,"o":"m 800 1021 l 939 1021 l 939 0 l 678 0 l 254 903 l 222 903 l 222 0 l 83 0 l 83 1021 l 344 1021 l 768 118 l 800 118 m 335 1264 l 433 1264 l 496 1185 l 526 1185 l 589 1264 l 688 1264 l 563 1106 l 460 1106 "},"Ť":{"ha":1000,"x_min":0,"x_max":0,"o":"m 569 0 l 431 0 l 431 896 l 69 896 l 69 1021 l 931 1021 l 931 896 l 569 896 m 324 1264 l 422 1264 l 485 1185 l 515 1185 l 578 1264 l 676 1264 l 551 1106 l 449 1106 "},"ě":{"ha":882,"x_min":0,"x_max":0,"o":"m 288 1021 l 386 1021 l 449 942 l 479 942 l 542 1021 l 640 1021 l 515 863 l 413 863 m 458 131 b 704 228 633 131 704 231 l 792 118 b 458 -4 785 111 669 -4 b 54 390 242 -4 54 172 b 458 782 54 606 242 782 b 828 504 654 782 828 660 b 664 340 828 414 754 340 l 197 340 b 458 131 222 221 333 131 m 458 647 b 207 469 344 647 243 571 l 664 469 b 696 504 682 469 696 486 b 458 647 696 569 600 647 "},"Ě":{"ha":944,"x_min":0,"x_max":0,"o":"m 861 132 l 861 0 l 83 0 l 83 1021 l 819 1021 l 819 889 l 222 889 l 222 594 l 708 594 l 708 463 l 222 463 l 222 132 m 296 1264 l 394 1264 l 457 1185 l 488 1185 l 550 1264 l 649 1264 l 524 1106 l 421 1106 "},"ă":{"ha":844,"x_min":0,"x_max":0,"o":"m 319 -4 b 69 247 182 -4 69 108 b 319 497 69 385 182 497 l 633 497 b 444 650 618 608 546 650 b 257 613 360 650 313 642 l 249 557 l 138 557 l 138 696 b 444 782 238 746 308 782 b 775 465 636 782 775 682 l 775 0 l 664 0 l 642 115 b 319 -4 565 54 460 -4 m 319 131 b 636 256 471 131 561 183 l 636 363 l 319 363 b 204 247 256 363 204 311 b 319 131 204 183 256 131 m 656 1054 b 436 883 656 950 561 883 b 217 1054 311 883 217 950 l 311 1054 b 436 967 315 994 363 967 b 560 1054 510 967 556 993 "},"˝":{"ha":531,"x_min":0,"x_max":0,"o":"m 135 863 l 49 863 l 124 1021 l 251 1021 m 365 863 l 279 863 l 354 1021 l 482 1021 "},"ű":{"ha":872,"x_min":0,"x_max":0,"o":"m 208 264 b 383 128 208 174 269 128 b 664 263 483 128 565 181 l 664 778 l 803 778 l 803 0 l 692 0 l 667 126 b 383 -4 576 57 476 -4 b 69 264 192 -4 69 89 l 69 778 l 208 778 m 347 863 l 261 863 l 336 1021 l 464 1021 m 578 863 l 492 863 l 567 1021 l 694 1021 "},"Ű":{"ha":1072,"x_min":0,"x_max":0,"o":"m 222 460 b 535 135 222 250 350 135 b 850 460 721 135 850 250 l 850 1021 l 989 1021 l 989 460 b 536 -4 989 143 767 -4 b 83 460 306 -4 83 143 l 83 1021 l 222 1021 m 447 1106 l 361 1106 l 436 1264 l 564 1264 m 678 1106 l 592 1106 l 667 1264 l 794 1264 "},"Ő":{"ha":1176,"x_min":0,"x_max":0,"o":"m 588 886 b 199 511 365 886 199 701 b 588 135 199 288 396 135 b 978 511 813 135 978 321 b 588 886 978 739 775 886 m 588 1025 b 1117 511 872 1025 1117 794 b 588 -4 1117 226 872 -4 b 60 511 304 -4 60 226 b 588 1025 60 794 304 1025 m 499 1106 l 413 1106 l 488 1264 l 615 1264 m 729 1106 l 643 1106 l 718 1264 l 846 1264 "},"ő":{"ha":915,"x_min":0,"x_max":0,"o":"m 458 782 b 861 390 674 782 861 606 b 458 -4 861 172 674 -4 b 54 390 242 -4 54 172 b 458 782 54 606 242 782 m 458 643 b 193 390 317 643 193 529 b 458 135 193 249 317 135 b 722 390 600 135 722 249 b 458 643 722 529 600 643 m 368 863 l 282 863 l 357 1021 l 485 1021 m 599 863 l 513 863 l 588 1021 l 715 1021 "},"Đ":{"ha":1060,"x_min":0,"x_max":0,"o":"m 111 0 l 111 469 l 21 469 l 21 581 l 111 581 l 111 1021 l 471 1021 b 1000 511 756 1021 1000 794 b 471 0 1000 226 756 0 m 483 581 l 483 469 l 250 469 l 250 135 l 471 135 b 861 511 696 135 861 321 b 471 886 861 739 658 886 l 250 886 l 250 581 m 733 1468 l 733 1385 l 297 1385 l 297 1468 "},"đ":{"ha":940,"x_min":0,"x_max":0,"o":"m 424 -4 b 40 389 204 -4 40 172 b 424 782 40 606 204 782 b 635 718 494 782 568 757 l 635 839 l 311 839 l 311 931 l 635 931 l 635 1088 l 774 1088 l 774 931 l 899 931 l 899 839 l 774 839 l 774 0 l 663 0 l 646 78 b 424 -4 581 31 500 -4 m 424 135 b 635 211 499 135 564 163 l 635 579 b 424 643 564 624 500 643 b 179 389 283 643 179 531 b 424 135 179 250 282 135 "},"Ł":{"ha":1028,"x_min":0,"x_max":0,"o":"m 944 118 l 944 0 l 167 0 l 167 506 l 61 451 l 61 563 l 167 617 l 167 1021 l 306 1021 l 306 688 l 496 785 l 496 674 l 306 576 l 306 118 "},"ł":{"ha":556,"x_min":0,"x_max":0,"o":"m 347 708 l 496 785 l 496 674 l 347 597 l 347 0 l 208 0 l 208 526 l 61 451 l 61 563 l 208 638 l 208 1060 l 347 1088 "},"ﬁ":{"ha":785,"x_min":0,"x_max":0,"o":"m 688 0 l 549 0 l 549 651 l 306 651 l 306 0 l 167 0 l 167 651 l 28 651 l 28 778 l 167 778 l 167 829 b 365 1088 167 965 210 1088 l 474 1060 l 474 963 l 365 963 b 306 829 311 963 306 886 l 306 778 l 688 778 m 531 974 b 618 1054 531 1018 569 1054 b 707 974 667 1054 707 1018 b 618 894 707 929 667 894 b 531 974 569 894 531 929 "},"ﬂ":{"ha":771,"x_min":0,"x_max":0,"o":"m 549 0 l 549 963 l 379 963 b 306 829 325 963 306 886 l 306 778 l 474 778 l 474 651 l 306 651 l 306 0 l 167 0 l 167 651 l 28 651 l 28 778 l 167 778 l 167 829 b 379 1088 167 965 224 1088 l 688 1088 l 688 0 "},"Ө":{"ha":1176,"x_min":0,"x_max":0,"o":"m 588 1025 b 1117 511 872 1025 1117 794 b 588 -4 1117 226 872 -4 b 60 511 304 -4 60 226 b 588 1025 60 794 304 1025 m 588 135 b 974 463 793 135 949 290 l 201 463 b 588 135 228 265 410 135 m 588 886 b 207 588 394 886 244 747 l 969 588 b 588 886 931 771 753 886 "},"ө":{"ha":888,"x_min":0,"x_max":0,"o":"m 444 782 b 847 390 660 782 847 606 b 444 -4 847 172 660 -4 b 40 390 228 -4 40 172 b 444 782 40 606 228 782 m 444 135 b 703 340 568 135 679 222 l 185 340 b 444 135 210 222 319 135 m 444 643 b 193 469 331 643 229 569 l 694 469 b 444 643 658 569 558 643 "},"Ҙ":{"ha":1054,"x_min":0,"x_max":0,"o":"m 410 -246 b 536 -185 443 -244 536 -240 b 489 -151 536 -162 507 -151 l 424 -151 l 456 -1 b 60 157 292 8 161 67 l 142 278 b 513 135 232 189 356 135 b 813 307 699 135 813 222 b 543 485 813 431 699 485 l 428 485 l 428 624 l 490 624 b 774 746 643 624 774 639 b 504 888 774 824 643 888 b 256 842 421 888 329 875 l 240 772 l 118 772 l 118 926 b 504 1026 229 996 382 1026 b 928 746 675 1026 928 944 b 792 564 928 654 849 578 b 967 307 871 532 967 428 b 553 -3 967 126 758 10 l 536 -42 b 674 -151 593 -42 674 -75 b 429 -301 674 -271 533 -301 l 394 -301 "},"ҙ":{"ha":840,"x_min":0,"x_max":0,"o":"m 308 -246 b 435 -185 342 -244 435 -240 b 388 -151 435 -162 406 -151 l 322 -151 l 356 0 b 56 118 181 19 61 113 l 143 228 b 424 135 143 231 249 135 b 646 240 519 135 646 163 b 424 332 646 292 615 332 l 308 332 l 308 471 l 431 471 b 617 554 617 471 617 529 b 417 643 617 590 540 643 b 226 606 333 643 267 622 l 208 564 l 107 564 l 107 700 b 417 782 111 704 240 782 b 756 554 613 782 756 679 b 669 407 756 494 708 429 b 785 240 722 383 785 318 b 451 -4 785 103 624 -4 l 435 -42 b 572 -151 492 -42 572 -75 b 328 -301 572 -271 432 -301 l 293 -301 "},"Ғ":{"ha":1014,"x_min":0,"x_max":0,"o":"m 931 1021 l 931 889 l 319 889 l 319 568 l 643 568 l 643 449 l 319 449 l 319 0 l 181 0 l 181 449 l 56 449 l 56 568 l 181 568 l 181 1021 "},"ғ":{"ha":803,"x_min":0,"x_max":0,"o":"m 167 472 l 167 778 l 733 778 l 733 649 l 306 649 l 306 472 l 629 472 l 629 353 l 306 353 l 306 0 l 167 0 l 167 353 l 42 353 l 42 472 "},"Ҫ":{"ha":1032,"x_min":0,"x_max":0,"o":"m 474 -246 b 600 -185 507 -244 600 -240 b 553 -151 600 -162 571 -151 l 488 -151 l 521 0 b 60 511 267 32 60 249 b 588 1026 60 796 304 1026 b 935 926 710 1026 824 996 l 935 772 l 813 772 l 796 847 b 588 888 736 876 665 888 b 199 511 396 888 199 735 b 588 135 199 288 396 135 b 889 275 713 135 819 192 l 988 176 b 617 -3 894 74 763 4 l 600 -42 b 738 -151 657 -42 738 -75 b 493 -301 738 -271 597 -301 l 458 -301 "},"ҫ":{"ha":807,"x_min":0,"x_max":0,"o":"m 331 -246 b 457 -185 364 -244 457 -240 b 410 -151 457 -162 428 -151 l 344 -151 l 378 0 b 40 390 189 26 40 179 b 438 782 40 619 221 782 b 726 701 614 782 722 704 l 726 564 l 625 564 l 606 610 b 438 643 569 625 511 643 b 179 390 296 643 179 543 b 438 135 179 235 296 135 b 683 228 613 135 683 231 l 771 118 b 474 -3 764 111 661 8 l 457 -42 b 594 -151 514 -42 594 -75 b 350 -301 594 -271 454 -301 l 315 -301 "},"ң":{"ha":914,"x_min":0,"x_max":0,"o":"m 747 -194 l 733 0 l 636 0 l 636 340 l 208 340 l 208 0 l 69 0 l 69 778 l 208 778 l 208 469 l 636 469 l 636 778 l 775 778 l 775 129 l 872 129 l 872 -194 "},"Һ":{"ha":1028,"x_min":0,"x_max":0,"o":"m 806 0 l 806 383 b 646 550 806 499 760 550 l 222 550 l 222 0 l 83 0 l 83 1021 l 222 1021 l 222 682 l 646 682 b 944 383 842 682 944 578 l 944 0 "},"һ":{"ha":844,"x_min":0,"x_max":0,"o":"m 486 650 b 208 526 389 650 303 601 l 208 0 l 69 0 l 69 1088 l 208 1088 l 208 664 b 476 782 294 729 388 782 b 775 486 650 782 775 685 l 775 0 l 636 0 l 636 494 b 486 650 636 576 583 650 "},"Ҡ":{"ha":1228,"x_min":0,"x_max":0,"o":"m 871 896 b 1047 1021 908 976 972 1021 l 1089 1007 l 1089 882 l 1047 882 b 992 833 1026 882 1006 864 l 899 629 b 821 538 881 589 853 547 b 925 418 860 522 900 474 l 1031 189 b 1089 135 1046 154 1067 135 l 1144 135 l 1144 10 l 1089 -4 b 908 121 1014 -4 946 40 l 776 401 b 704 456 763 436 726 456 l 403 456 l 403 0 l 264 0 l 264 896 l 83 896 l 83 1021 l 403 1021 l 403 594 l 683 594 b 753 643 706 594 739 608 "},"ҡ":{"ha":1032,"x_min":0,"x_max":0,"o":"m 69 778 l 361 778 l 361 469 l 599 469 b 654 531 618 469 642 497 l 701 653 b 882 778 738 733 807 778 l 936 764 l 936 639 l 882 639 b 824 585 860 639 838 619 l 776 463 b 722 406 768 440 736 413 b 774 354 735 401 764 374 l 850 189 b 908 135 865 154 886 135 l 963 135 l 963 10 l 908 -4 b 728 121 832 -4 765 40 l 651 286 b 596 340 636 318 619 340 l 361 340 l 361 0 l 222 0 l 222 649 l 69 649 "},"Ә":{"ha":1144,"x_min":0,"x_max":0,"o":"m 944 588 b 564 888 906 768 732 888 b 356 847 485 888 414 876 l 339 772 l 217 772 l 217 926 b 564 1026 328 996 442 1026 b 1092 511 847 1026 1092 796 b 564 -4 1092 226 847 -4 b 54 525 313 -4 54 178 l 65 588 m 207 463 b 564 135 207 282 386 135 b 949 463 742 135 924 265 "},"ә":{"ha":876,"x_min":0,"x_max":0,"o":"m 42 469 l 685 469 b 439 643 653 576 554 643 b 271 610 363 643 307 625 l 251 564 l 150 564 l 150 701 b 439 782 154 704 263 782 b 836 390 656 782 836 619 b 439 -4 836 158 656 -4 b 42 390 222 -4 42 158 m 439 135 b 693 340 564 135 671 214 l 185 340 b 439 135 207 214 314 135 "},"Ү":{"ha":953,"x_min":0,"x_max":0,"o":"m 781 1021 l 919 1021 l 618 393 l 546 393 l 546 0 l 407 0 l 407 393 l 335 393 l 33 1021 l 172 1021 l 407 532 l 546 532 "},"ү":{"ha":826,"x_min":0,"x_max":0,"o":"m 46 778 l 185 778 l 376 139 l 450 139 l 642 778 l 781 778 l 549 0 l 482 0 l 482 -301 l 343 -301 l 343 0 l 278 0 "},"Җ":{"ha":1622,"x_min":0,"x_max":0,"o":"m 1414 -208 l 1400 -1 b 1247 121 1336 7 1281 50 l 1115 401 b 1043 456 1101 436 1065 456 l 853 456 l 853 0 l 714 0 l 714 456 l 524 456 b 451 401 501 456 465 436 l 319 121 b 139 -4 282 40 214 -4 l 83 10 l 83 135 l 139 135 b 197 189 161 135 181 154 l 303 418 b 407 538 328 474 368 522 b 329 629 375 547 347 589 l 236 833 b 181 882 222 864 201 882 l 139 882 l 139 1007 l 181 1021 b 357 896 256 1021 319 976 l 475 643 b 544 594 489 608 522 594 l 714 594 l 714 1021 l 853 1021 l 853 594 l 1022 594 b 1092 643 1044 594 1078 608 l 1210 896 b 1386 1021 1247 976 1311 1021 l 1428 1007 l 1428 882 l 1386 882 b 1331 833 1365 882 1344 864 l 1238 629 b 1160 538 1219 589 1192 547 b 1264 418 1199 522 1239 474 l 1369 189 b 1428 135 1385 154 1406 135 l 1539 135 l 1539 -208 "},"җ":{"ha":1425,"x_min":0,"x_max":0,"o":"m 1231 -194 l 1217 -1 b 1065 121 1147 7 1097 50 l 989 286 b 933 340 974 318 956 338 l 754 340 l 754 0 l 615 0 l 615 340 l 436 340 b 381 286 408 338 394 318 l 304 121 b 124 -4 267 40 199 -4 l 69 10 l 69 135 l 124 135 b 182 189 146 135 165 154 l 258 354 b 310 406 267 374 297 401 b 256 463 296 413 264 440 l 208 585 b 150 639 194 619 172 639 l 96 639 l 96 764 l 150 778 b 331 653 225 778 294 733 l 378 531 b 433 469 390 497 413 472 l 615 469 l 615 778 l 754 778 l 754 469 l 936 469 b 992 531 956 472 979 497 l 1039 653 b 1219 778 1075 733 1144 778 l 1274 764 l 1274 639 l 1219 639 b 1161 585 1197 639 1175 619 l 1114 463 b 1060 406 1106 440 1072 413 b 1111 354 1072 401 1101 374 l 1188 189 b 1246 135 1203 154 1224 135 l 1356 135 l 1356 -194 "},"Ҳ":{"ha":1026,"x_min":0,"x_max":0,"o":"m 847 -208 l 833 0 l 772 0 l 525 463 l 433 463 l 186 0 l 47 0 l 335 539 l 75 1021 l 214 1021 l 447 588 l 510 588 l 744 1021 l 883 1021 l 622 539 l 844 125 l 972 125 l 972 -208 "},"ҳ":{"ha":863,"x_min":0,"x_max":0,"o":"m 454 372 l 372 372 l 168 0 l 21 0 l 257 443 l 53 778 l 200 778 l 376 497 l 450 497 l 628 778 l 775 778 l 571 443 l 738 129 l 831 129 l 831 -194 l 706 -194 l 692 0 l 660 0 "},"Ĺ":{"ha":944,"x_min":0,"x_max":0,"o":"m 861 118 l 861 0 l 83 0 l 83 1021 l 222 1021 l 222 118 m 454 1092 l 364 1092 l 453 1250 l 581 1250 "},"Ď":{"ha":1032,"x_min":0,"x_max":0,"o":"m 83 0 l 83 1021 l 443 1021 b 972 511 728 1021 972 794 b 443 0 972 226 728 0 m 443 135 b 833 511 668 135 833 321 b 443 886 833 739 631 886 l 222 886 l 222 135 m 228 1264 l 326 1264 l 389 1185 l 419 1185 l 482 1264 l 581 1264 l 456 1106 l 353 1106 "},"ĺ":{"ha":278,"x_min":0,"x_max":0,"o":"m 208 0 l 69 0 l 69 1060 l 208 1088 m 176 1106 l 86 1106 l 175 1264 l 303 1264 "},"ľ":{"ha":525,"x_min":0,"x_max":0,"o":"m 371 863 l 308 863 l 342 1090 l 456 1090 m 208 0 l 69 0 l 69 1060 l 208 1088 "},"Ľ":{"ha":944,"x_min":0,"x_max":0,"o":"m 413 724 l 350 724 l 383 1021 l 511 1021 m 861 118 l 861 0 l 83 0 l 83 1021 l 222 1021 l 222 118 "},"ď":{"ha":1063,"x_min":0,"x_max":0,"o":"m 424 -4 b 40 389 204 -4 40 172 b 424 782 40 606 204 782 b 635 718 494 782 568 757 l 635 1088 l 774 1088 l 774 0 l 663 0 l 646 78 b 424 -4 581 31 500 -4 m 424 135 b 635 211 499 135 564 163 l 635 579 b 424 643 564 624 500 643 b 179 389 283 643 179 531 b 424 135 179 250 282 135 m 936 863 l 874 863 l 907 1090 l 1021 1090 "},"Ş":{"ha":1022,"x_min":0,"x_max":0,"o":"m 386 -246 b 513 -185 419 -244 513 -240 b 465 -151 513 -162 483 -151 l 400 -151 l 432 -1 b 46 157 272 11 146 68 l 128 278 b 499 135 218 189 342 135 b 799 307 685 135 799 222 b 529 469 799 431 685 469 b 85 746 324 469 85 515 b 508 1026 85 944 338 1026 b 894 926 631 1026 783 996 l 894 758 l 772 758 l 756 842 b 508 888 683 875 590 888 b 239 746 369 888 239 824 b 522 613 239 639 369 613 b 953 307 733 613 953 553 b 529 -3 953 124 738 7 l 513 -42 b 650 -151 569 -42 650 -75 b 406 -301 650 -271 510 -301 l 371 -301 "},"ş":{"ha":846,"x_min":0,"x_max":0,"o":"m 299 -246 b 425 -185 332 -244 425 -240 b 378 -151 425 -162 396 -151 l 313 -151 l 346 0 l 354 0 b 56 118 181 21 61 113 l 143 228 b 424 132 143 231 249 132 b 646 240 519 132 646 163 b 424 333 646 292 615 333 b 85 557 193 333 85 415 b 424 782 85 682 228 782 b 733 701 600 782 729 704 l 733 564 l 626 564 l 608 610 b 424 646 567 626 504 646 b 224 557 314 646 224 611 b 424 469 224 508 265 469 b 785 240 628 469 785 401 b 440 -4 785 97 639 1 l 425 -42 b 563 -151 482 -42 563 -75 b 318 -301 563 -271 422 -301 l 283 -301 "},"ť":{"ha":688,"x_min":0,"x_max":0,"o":"m 561 863 l 499 863 l 532 1090 l 646 1090 m 389 -4 b 167 250 225 -4 167 103 l 167 653 l 42 653 l 42 778 l 181 778 l 208 976 l 306 976 l 306 778 l 488 778 l 488 653 l 306 653 l 306 250 b 389 128 306 167 344 128 l 488 128 l 488 10 "},"Ţ":{"ha":1000,"x_min":0,"x_max":0,"o":"m 404 -246 b 531 -185 438 -244 531 -240 b 483 -151 531 -162 501 -151 l 418 -151 l 451 0 l 431 0 l 431 896 l 69 896 l 69 1021 l 931 1021 l 931 896 l 569 896 l 569 0 l 549 0 l 531 -42 b 668 -151 588 -42 668 -75 b 424 -301 668 -271 528 -301 l 389 -301 "},"ţ":{"ha":571,"x_min":0,"x_max":0,"o":"m 389 -4 b 367 -3 381 -4 374 -4 l 350 -42 b 488 -151 407 -42 488 -75 b 243 -301 488 -271 347 -301 l 208 -301 l 224 -246 b 350 -185 257 -244 350 -240 b 303 -151 350 -162 321 -151 l 238 -151 l 278 18 b 167 250 197 57 167 142 l 167 653 l 42 653 l 42 778 l 181 778 l 208 976 l 306 976 l 306 778 l 488 778 l 488 653 l 306 653 l 306 250 b 389 128 306 167 344 128 l 488 128 l 488 10 "},"":{"ha":875,"x_min":0,"x_max":0,"o":"m 69 389 b 438 782 69 592 235 782 b 806 389 640 782 806 592 b 438 -4 806 186 640 -4 b 69 389 235 -4 69 186 m 211 389 b 438 135 211 258 311 135 b 664 389 564 135 664 258 b 438 643 664 519 564 643 b 211 389 311 643 211 519 "},"":{"ha":853,"x_min":0,"x_max":0,"o":"m 494 139 l 783 139 l 783 0 l 69 0 l 69 139 l 356 139 l 356 539 l 168 351 l 69 450 l 399 778 l 494 778 "},"":{"ha":853,"x_min":0,"x_max":0,"o":"m 631 492 b 435 643 631 553 600 643 b 236 467 317 643 236 565 l 97 467 b 435 782 97 636 242 782 b 769 492 671 782 769 649 b 461 139 769 343 617 225 l 783 139 l 783 0 l 69 0 l 69 97 b 631 492 179 151 631 326 "},"":{"ha":851,"x_min":0,"x_max":0,"o":"m 376 325 l 519 325 b 617 492 583 357 617 435 b 435 643 617 553 600 643 b 236 467 317 643 236 565 l 97 467 b 435 782 97 636 242 782 b 756 492 671 782 756 649 b 653 271 756 408 722 335 b 782 31 725 211 782 126 b 418 -306 782 -162 624 -306 b 69 0 224 -306 83 -178 l 208 0 b 418 -167 224 -111 325 -167 b 643 31 519 -167 643 -100 b 557 186 643 101 606 153 l 376 186 "},"":{"ha":876,"x_min":0,"x_max":0,"o":"m 599 139 l 599 432 l 738 432 l 738 139 l 807 139 l 807 0 l 738 0 l 738 -301 l 599 -301 l 599 0 l 69 0 l 69 139 l 449 778 l 608 778 l 243 139 "},"":{"ha":851,"x_min":0,"x_max":0,"o":"m 208 0 b 418 -167 224 -111 325 -167 b 643 44 519 -167 643 -86 b 432 256 643 175 533 256 b 224 165 319 256 279 218 l 90 193 l 147 778 l 728 778 l 728 639 l 275 639 l 246 346 b 432 394 297 368 347 394 b 782 44 638 394 782 238 b 418 -306 782 -149 624 -306 b 69 0 224 -306 83 -178 "},"":{"ha":875,"x_min":0,"x_max":0,"o":"m 628 785 b 457 886 608 832 556 886 b 211 568 294 886 224 736 b 438 706 247 633 342 706 b 806 357 700 706 806 522 b 438 -4 806 192 700 -4 b 69 510 175 -4 69 219 b 457 1025 69 772 194 1025 b 774 785 631 1025 746 907 m 438 135 b 667 357 635 135 667 299 b 438 567 667 415 635 567 b 213 385 304 567 228 440 b 438 135 226 276 278 135 "},"":{"ha":879,"x_min":0,"x_max":0,"o":"m 433 -301 l 281 -301 l 642 639 l 71 639 l 71 778 l 808 778 l 808 694 "},"":{"ha":875,"x_min":0,"x_max":0,"o":"m 139 754 b 438 1025 139 922 269 1025 b 736 754 606 1025 736 922 b 672 579 736 682 713 624 b 806 329 754 529 806 446 b 438 -4 806 122 644 -4 b 69 329 231 -4 69 122 b 204 582 69 446 121 531 b 139 754 164 624 139 681 m 367 504 b 208 329 267 482 208 410 b 438 135 208 229 296 135 b 667 329 579 135 667 229 b 438 499 667 429 579 499 b 367 504 413 499 389 500 m 597 754 b 438 886 597 836 528 886 b 278 754 347 886 278 836 b 519 632 278 633 394 644 b 597 754 567 651 597 701 "},"":{"ha":875,"x_min":0,"x_max":0,"o":"m 247 -65 b 418 -167 267 -112 319 -167 b 664 182 581 -167 651 14 b 438 44 628 117 533 44 b 69 407 175 44 69 242 b 438 782 69 572 175 782 b 806 240 700 782 806 558 b 418 -306 806 -36 681 -306 b 101 -65 244 -306 129 -187 m 438 643 b 208 407 240 643 208 465 b 438 183 208 349 240 183 b 663 379 571 183 647 324 b 438 643 649 488 597 643 "},"−":{"ha":629,"x_min":0,"x_max":0,"o":"m 83 417 l 83 528 l 546 528 l 546 417 "},"Қ":{"ha":1131,"x_min":0,"x_max":0,"o":"m 922 -208 l 908 -4 b 728 121 833 -4 765 40 l 596 401 b 524 463 582 436 556 463 l 222 463 l 222 0 l 83 0 l 83 1021 l 222 1021 l 222 588 l 499 588 b 568 643 526 588 554 608 l 686 896 b 867 1021 724 976 792 1021 l 908 1007 l 908 882 l 867 882 b 808 828 844 882 824 863 l 693 575 b 658 538 685 558 669 543 b 721 469 678 526 708 497 l 850 189 b 908 125 865 154 886 125 l 1047 125 l 1047 -208 "},"ұ":{"ha":826,"x_min":0,"x_max":0,"o":"m 119 0 l 119 92 l 250 92 l 46 778 l 185 778 l 390 92 l 436 92 l 642 778 l 781 778 l 575 92 l 707 92 l 707 0 l 482 0 l 482 -301 l 343 -301 l 343 0 "},"Ұ":{"ha":1117,"x_min":0,"x_max":0,"o":"m 904 1021 l 1043 1021 l 700 393 l 628 393 l 628 276 l 881 276 l 881 185 l 628 185 l 628 0 l 489 0 l 489 185 l 238 185 l 238 276 l 489 276 l 489 393 l 417 393 l 74 1021 l 213 1021 l 485 532 l 632 532 "},"қ":{"ha":935,"x_min":0,"x_max":0,"o":"m 763 129 l 865 129 l 865 -194 l 740 -194 l 726 -1 b 575 121 663 7 607 50 l 499 286 b 443 340 483 318 465 338 l 208 340 l 208 0 l 69 0 l 69 778 l 208 778 l 208 469 l 446 469 b 501 531 465 472 489 497 l 549 653 b 729 778 585 733 654 778 l 783 764 l 783 639 l 729 639 b 671 585 707 639 685 619 l 624 463 b 569 406 615 440 582 413 b 621 354 582 401 611 374 l 697 189 b 763 129 713 154 740 129 "},"Ҹ":{"ha":1019,"x_min":0,"x_max":0,"o":"m 485 676 l 576 676 l 576 444 l 797 444 l 797 1021 l 936 1021 l 936 0 l 797 0 l 797 313 l 576 313 l 576 89 l 485 89 l 485 313 l 438 313 b 83 667 242 313 83 472 l 83 1021 l 222 1021 l 222 667 b 438 444 222 551 324 444 l 485 444 "},"ҹ":{"ha":831,"x_min":0,"x_max":0,"o":"m 622 0 l 622 271 l 465 271 l 465 43 l 374 43 l 374 271 l 319 271 b 69 521 179 271 69 385 l 69 778 l 208 778 l 208 521 b 319 406 208 458 257 406 l 374 406 l 374 631 l 465 631 l 465 406 l 622 406 l 622 778 l 761 778 l 761 0 "},"ҝ":{"ha":879,"x_min":0,"x_max":0,"o":"m 304 686 l 396 686 l 396 469 l 446 469 b 501 531 465 472 489 497 l 549 653 b 729 778 585 733 654 778 l 783 764 l 783 639 l 729 639 b 671 585 707 639 685 619 l 624 463 b 569 406 615 440 582 413 b 621 354 582 401 611 374 l 697 189 b 756 135 713 154 733 135 l 810 135 l 810 10 l 756 -4 b 575 121 679 -4 613 40 l 499 286 b 443 340 483 318 465 338 l 396 340 l 396 99 l 304 99 l 304 340 l 208 340 l 208 0 l 69 0 l 69 778 l 208 778 l 208 469 l 304 469 "},"Ҝ":{"ha":1047,"x_min":0,"x_max":0,"o":"m 357 815 l 449 815 l 449 588 l 499 588 b 568 643 526 588 554 608 l 686 896 b 867 1021 724 976 792 1021 l 908 1007 l 908 882 l 867 882 b 808 828 844 882 824 863 l 693 575 b 658 538 685 558 669 543 b 721 469 678 526 708 497 l 850 189 b 908 135 865 154 886 135 l 964 135 l 964 10 l 908 -4 b 728 121 833 -4 765 40 l 596 401 b 524 463 582 436 556 463 l 449 463 l 449 228 l 357 228 l 357 463 l 222 463 l 222 0 l 83 0 l 83 1021 l 222 1021 l 222 588 l 357 588 "},"ѳ":{"ha":888,"x_min":0,"x_max":0,"o":"m 444 782 b 847 390 660 782 847 606 b 444 -4 847 172 660 -4 b 40 390 228 -4 40 172 b 444 782 40 606 228 782 m 444 646 b 185 450 324 646 214 561 l 190 447 b 300 492 218 474 254 492 b 508 393 392 492 450 429 b 607 363 547 369 576 363 b 706 440 664 363 704 410 b 444 646 679 556 568 646 m 288 382 b 193 303 229 382 194 333 b 444 132 232 203 333 132 b 675 265 540 132 629 186 l 668 269 b 594 253 647 258 622 253 b 378 342 503 253 438 307 b 288 382 338 365 318 382 "},"Ѳ":{"ha":1204,"x_min":0,"x_max":0,"o":"m 601 1025 b 1131 511 886 1025 1131 794 b 601 -4 1131 226 886 -4 b 74 511 318 -4 74 226 b 601 1025 74 794 318 1025 m 601 135 b 967 383 775 135 913 246 b 831 343 928 358 882 343 b 560 463 753 343 685 364 b 372 554 456 544 401 554 b 217 449 297 554 236 503 b 601 135 250 260 428 135 m 647 556 b 831 468 747 478 801 468 b 986 576 907 468 968 522 b 601 886 951 767 769 886 b 238 640 431 886 293 776 b 372 679 276 664 321 679 b 647 556 450 679 517 658 "}}}
